<svg xmlns="http://www.w3.org/2000/svg" viewBox="0 0 24 24"><defs><style>.a{fill:none;stroke:currentColor;stroke-linecap:round;stroke-linejoin:round;stroke-width:1.5px;}</style></defs><title>envelope-ups</title><path class="a" d="M.75,23.25v-21A1.5,1.5,0,0,1,2.25.75h19.5a1.5,1.5,0,0,1,1.5,1.5v21"/><line class="a" x1="10.5" y1="23" x2="10.5" y2="15.5"/><path class="a" d="M10.5,15.5h.75a2.25,2.25,0,0,1,0,4.5H10.5"/><path class="a" d="M4.5,15.5v6a1.5,1.5,0,0,0,3,0v-6"/><path class="a" d="M19.5,15.5H18A1.5,1.5,0,0,0,16.5,17c0,2.25,3,2.25,3,4.5A1.5,1.5,0,0,1,18,23H16.5"/><line class="a" x1="12" y1="6" x2="19.5" y2="6"/><line class="a" x1="12" y1="9" x2="17.25" y2="9"/><rect class="a" x="4.5" y="5.25" width="4.5" height="4.5"/></svg>