<?xml version="1.0" encoding="utf-8"?>
<!-- Generator: Adobe Illustrator 22.1.0, SVG Export Plug-In . SVG Version: 6.00 Build 0)  -->
<svg version="1.1" id="Layer_1" xmlns="http://www.w3.org/2000/svg" xmlns:xlink="http://www.w3.org/1999/xlink" x="0px" y="0px"
	 viewBox="0 0 24 24" style="enable-background:new 0 0 24 24;" xml:space="preserve">
<title>love-heart-hands-hold-1</title>
<path d="M21,1h2c0.6,0,1,0.4,1,1v7c0,0.6-0.4,1-1,1h-2c-0.6,0-1-0.4-1-1V2C20,1.4,20.4,1,21,1z"/>
<path d="M3.6,6.9L3.6,6.9l2-0.6C5.9,6.2,6,6,6,5.7c0-1.2,1-2.3,2.2-2.3c0,0,0,0,0,0h5.2c0.3,0,0.5,0.2,0.5,0.5
	c0,0.3-0.2,0.5-0.5,0.5c0,0,0,0,0,0H8.2C7.6,4.4,7,5,7,5.7s0.6,1.2,1.2,1.2l3.4,0c0.2,0,0.4,0.1,0.6,0.2c1.3,0.9,2.5,1.8,4.3,1.8h2
	c0.3,0,0.5-0.2,0.5-0.5V2.5c0-0.2-0.1-0.4-0.3-0.5c-0.7-0.2-1.3-0.5-1.9-0.7c-5.8-2-5.9-2-11.6,1C3.9,3.1,2.3,3.9,0.3,4.9
	C0,5.1-0.1,5.4,0.1,5.6c0,0,0.1,0.1,0.1,0.1C1,6.8,2.4,7.2,3.6,6.9z"/>
<path d="M1,14h2c0.6,0,1,0.4,1,1v7c0,0.6-0.4,1-1,1H1c-0.6,0-1-0.4-1-1v-7C0,14.4,0.4,14,1,14z"/>
<path d="M20.4,17.1L20.4,17.1l-2,0.6C18.1,17.8,18,18,18,18.3c0,1.2-1,2.3-2.2,2.3c0,0,0,0,0,0h-5.2c-0.3,0-0.5-0.2-0.5-0.5
	s0.2-0.5,0.5-0.5h5.2c0.7,0,1.2-0.6,1.2-1.2s-0.6-1.2-1.2-1.2l-3.4,0c-0.2,0-0.4-0.1-0.6-0.2c-1.3-0.9-2.5-1.8-4.3-1.8h-2
	c-0.3,0-0.5,0.2-0.5,0.5v5.9c0,0.2,0.1,0.4,0.3,0.5c0.7,0.2,1.3,0.5,1.9,0.7c5.8,2,5.9,2,11.6-1c1.3-0.7,2.9-1.5,4.9-2.5
	c0.2-0.1,0.3-0.4,0.2-0.7c0,0-0.1-0.1-0.1-0.1C23,17.2,21.6,16.8,20.4,17.1z"/>
</svg>
