<svg xmlns="http://www.w3.org/2000/svg" viewBox="0 0 24 24"><title>common-file-text-check</title><path d="M12,8.5h7a1,1,0,0,0,0-2H12a1,1,0,0,0,0,2Z"/><path d="M23.414,3,21,.586A2,2,0,0,0,19.585,0H8A2,2,0,0,0,6,2V9.275a.248.248,0,0,0,.242.25c.366.006,1.038.034,1.485.083A.246.246,0,0,0,8,9.36V2.5A.5.5,0,0,1,8.5,2H19.379a.5.5,0,0,1,.353.146l2.122,2.122A.5.5,0,0,1,22,4.621V18a.5.5,0,0,1-.5.5H14.642a.245.245,0,0,0-.241.21,7.956,7.956,0,0,1-.364,1.458.244.244,0,0,0,.228.331H22a2,2,0,0,0,2-2V4.414A2,2,0,0,0,23.414,3Z"/><path d="M17.5,12a1,1,0,0,0-1-1h-4a.952.952,0,0,0-.632.243.223.223,0,0,0,.006.343A8.066,8.066,0,0,1,13.038,12.9a.24.24,0,0,0,.2.1H16.5A1,1,0,0,0,17.5,12Z"/><path d="M6.5,11A6.5,6.5,0,1,0,13,17.5,6.508,6.508,0,0,0,6.5,11Zm3.273,5.2-2.9,3.874a1.491,1.491,0,0,1-1.1.6c-.037,0-.073,0-.109,0a1.5,1.5,0,0,1-1.057-.442l-1.5-1.5a.75.75,0,0,1,1.061-1.06l1.3,1.3a.25.25,0,0,0,.377-.027l2.732-3.643a.75.75,0,1,1,1.2.9Z"/></svg>