<svg xmlns="http://www.w3.org/2000/svg" viewBox="0 0 24 24"><title>hourglass-alternate</title><path d="M20.5,22h-1V18.5A7.505,7.505,0,0,0,15.739,12,7.5,7.5,0,0,0,19.5,5.5V2h1a1,1,0,0,0,0-2H3.5a1,1,0,0,0,0,2h1V5.5A7.5,7.5,0,0,0,8.261,12,7.505,7.505,0,0,0,4.5,18.5V22h-1a1,1,0,0,0,0,2h17a1,1,0,0,0,0-2Zm-14-3.5a5.507,5.507,0,0,1,6.051-5.473A5.668,5.668,0,0,1,17.5,18.747V21.5a.5.5,0,0,1-.5.5H7a.5.5,0,0,1-.5-.5ZM7,2H17a.5.5,0,0,1,.5.5V5.256a5.667,5.667,0,0,1-4.949,5.718A5.506,5.506,0,0,1,6.5,5.5v-3A.5.5,0,0,1,7,2Z"/><path d="M12,9.626a4.042,4.042,0,0,0,3.433-2.165A.5.5,0,0,0,15,6.71H9a.5.5,0,0,0-.433.751A4.042,4.042,0,0,0,12,9.626Z"/><path d="M12.748,15.59a1.035,1.035,0,0,0-1.5,0L7.925,19.337A1,1,0,0,0,8.671,21h6.658a1,1,0,0,0,.747-1.664Z"/></svg>