<svg xmlns="http://www.w3.org/2000/svg" viewBox="0 0 24 24"><defs><style>.a{fill:none;stroke:currentColor;stroke-linecap:round;stroke-linejoin:round;stroke-width:1.5px;}</style></defs><title>office-folder-sealed</title><rect class="a" x="3.75" y="0.748" width="16.5" height="22.5" rx="1" ry="1"/><path class="a" d="M20.067,22.825,17.492,20.16a2.238,2.238,0,0,0-1.609-.662H8.118a2.239,2.239,0,0,0-1.61.662L3.933,22.825"/><circle class="a" cx="12" cy="5.248" r="1.5"/><circle class="a" cx="12" cy="14.248" r="1.5"/><line class="a" x1="12" y1="6.748" x2="12" y2="12.748"/><path class="a" d="M15.75,7.5h1.169a1.5,1.5,0,0,0,1.423-1.025L20.1,1.222"/><path class="a" d="M3.905,1.213l1.753,5.26A1.5,1.5,0,0,0,7.081,7.5H8.25"/></svg>