<?xml version="1.0" encoding="utf-8"?>
<!-- Generator: Adobe Illustrator 22.1.0, SVG Export Plug-In . SVG Version: 6.00 Build 0)  -->
<svg version="1.1" id="Layer_1" xmlns="http://www.w3.org/2000/svg" xmlns:xlink="http://www.w3.org/1999/xlink" x="0px" y="0px"
	 viewBox="0 0 24 24" style="enable-background:new 0 0 24 24;" xml:space="preserve">
<style type="text/css">
	.st0{fill:none;}
</style>
<title>target-correct</title>
<path d="M16.3,4.3v1.8c0,0.1,0,0.2-0.1,0.2c0,0-0.1,0.1-0.1,0.1l-5.5,5.5c-0.4,0.4-0.5,1.1,0,1.6c0.4,0.4,1.1,0.5,1.6,0c0,0,0,0,0,0
	L17.6,8c0,0,0.1-0.1,0.1-0.1c0.1-0.1,0.1-0.1,0.2-0.1h1.8c0.4,0,0.9-0.2,1.2-0.5l3-3C24,4,24,3.7,23.8,3.5c-0.1-0.1-0.2-0.2-0.4-0.2
	h-2.5c-0.2,0-0.3-0.1-0.3-0.3V0.6c0-0.3-0.2-0.6-0.6-0.6c-0.1,0-0.3,0.1-0.4,0.2l-3,3C16.4,3.5,16.3,3.9,16.3,4.3z"/>
<g>
	<path class="st0" d="M2.2,12.7c0,4.9,4,8.9,8.9,8.9s8.9-4,8.9-8.9c0-1-0.2-2-0.5-2.9h-0.9l-0.9,0.9c0.2,0.6,0.3,1.3,0.3,2
		c0,3.8-3.1,6.9-6.9,6.9s-6.9-3.1-6.9-6.9c0-3.8,3.1-6.9,6.9-6.9c0.8,0,1.6,0.1,2.3,0.4l0.8-0.8v-1c0,0,0,0,0,0
		c-1-0.4-2-0.6-3.1-0.6C6.2,3.7,2.2,7.7,2.2,12.7z"/>
	<path d="M15.8,12.7c0,2.6-2.1,4.7-4.7,4.7s-4.7-2.1-4.7-4.7c0-2.6,2.1-4.7,4.7-4.7c0.2,0,0.3,0,0.4,0l1.9-1.9
		c-0.7-0.3-1.5-0.4-2.3-0.4c-3.8,0-6.9,3.1-6.9,6.9c0,3.8,3.1,6.9,6.9,6.9s6.9-3.1,6.9-6.9c0-0.7-0.1-1.4-0.3-2l-1.9,1.9
		C15.8,12.6,15.8,12.6,15.8,12.7z"/>
	<path d="M19.6,9.7c0.3,0.9,0.5,1.9,0.5,2.9c0,4.9-4,8.9-8.9,8.9s-8.9-4-8.9-8.9s4-8.9,8.9-8.9c1.1,0,2.1,0.2,3.1,0.6
		c0-0.8,0.2-1.5,0.7-2.1c-1.2-0.4-2.5-0.7-3.8-0.7C5,1.5,0,6.5,0,12.7s5,11.1,11.1,11.1s11.1-5,11.1-11.1c0-1.2-0.2-2.4-0.6-3.6
		c-0.6,0.4-1.3,0.6-2,0.6H19.6z"/>
</g>
<circle cx="11.2" cy="12.7" r="2.3"/>
</svg>
