<svg xmlns="http://www.w3.org/2000/svg" viewBox="0 0 24 24"><title>newspaper</title><path d="M22,0H2A2,2,0,0,0,0,2V22a2,2,0,0,0,2,2H22a2,2,0,0,0,2-2V2A2,2,0,0,0,22,0Zm0,21.5a.5.5,0,0,1-.5.5H2.5a.5.5,0,0,1-.5-.5V2.5A.5.5,0,0,1,2.5,2h19a.5.5,0,0,1,.5.5Z"/><rect x="4.25" y="4" width="15.5" height="5" rx="1.25" ry="1.25"/><rect x="4.25" y="11" width="7" height="2" rx="0.75" ry="0.75"/><rect x="4.25" y="14.5" width="7" height="2" rx="0.75" ry="0.75"/><rect x="4.25" y="18" width="7" height="2" rx="0.75" ry="0.75"/><rect x="12.75" y="18" width="7" height="2" rx="0.75" ry="0.75"/><rect x="12.75" y="11" width="7" height="2" rx="0.75" ry="0.75"/><rect x="12.75" y="14.5" width="7" height="2" rx="0.75" ry="0.75"/></svg>