<svg xmlns="http://www.w3.org/2000/svg" viewBox="0 0 612 120"><path d="M24,60a36,36,0,0,1,71.874-3H77.746A18,18,0,0,0,42,60ZM0,60a60,60,0,0,0,119.925,3H101.892A42,42,0,0,1,18,60Z" fill="#0080c9"/><path d="M0,60a60,60,0,0,1,119.925-3H101.892A42,42,0,0,0,18,60Zm24,0a36,36,0,0,0,71.874,3H77.746A18,18,0,0,1,42,60Z" fill="#00abeb"/><path d="M138,9.6h7.471l7.588,32.118h.118L161.646,9.6h7.53l8.235,32.118h.118L185.352,9.6h7.471l-11.588,42h-7.471l-8.412-32.118h-.117L156.646,51.6h-7.588Zm70.452,42.825a16.576,16.576,0,0,1-6.5-1.206,13.829,13.829,0,0,1-4.823-3.324,14.187,14.187,0,0,1-3-5.059,19.477,19.477,0,0,1-1.029-6.47,19.294,19.294,0,0,1,1.029-6.412,14.2,14.2,0,0,1,3-5.059,13.842,13.842,0,0,1,4.823-3.324,18.122,18.122,0,0,1,13,0,13.879,13.879,0,0,1,4.823,3.324,14.222,14.222,0,0,1,3,5.059,19.294,19.294,0,0,1,1.029,6.412,19.477,19.477,0,0,1-1.029,6.47,14.214,14.214,0,0,1-3,5.059,13.866,13.866,0,0,1-4.823,3.324A16.588,16.588,0,0,1,208.451,52.425Zm0-5.295a7.693,7.693,0,0,0,3.883-.941,8.192,8.192,0,0,0,2.706-2.47,10.81,10.81,0,0,0,1.559-3.442,15.436,15.436,0,0,0,0-7.794,10.439,10.439,0,0,0-1.559-3.441,8.34,8.34,0,0,0-2.706-2.442,8.488,8.488,0,0,0-7.765,0,8.31,8.31,0,0,0-2.706,2.442,10.378,10.378,0,0,0-1.559,3.441,15.436,15.436,0,0,0,0,7.794,10.745,10.745,0,0,0,1.559,3.442,8.163,8.163,0,0,0,2.706,2.47A7.681,7.681,0,0,0,208.451,47.13Zm37.924-20.323a12.06,12.06,0,0,0-1.441-.089,7.706,7.706,0,0,0-3.206.677,7.356,7.356,0,0,0-2.618,2,9.785,9.785,0,0,0-1.764,3.265,14.1,14.1,0,0,0-.648,4.47V51.6h-6.705V21.189h6.294v5.882h.117a6.8,6.8,0,0,1,1.147-2.411,11.142,11.142,0,0,1,2.059-2.147,10.367,10.367,0,0,1,2.677-1.559,8.014,8.014,0,0,1,3-.589,14.875,14.875,0,0,1,1.618.059l-.01,6.449ZM296.556,51.6H290.2V47.483h-.117a7.964,7.964,0,0,1-3.942,3.794,13.35,13.35,0,0,1-5.47,1.148,14.523,14.523,0,0,1-6.265-1.265,12.483,12.483,0,0,1-4.441-3.441,14.716,14.716,0,0,1-2.647-5.147,22.289,22.289,0,0,1-.883-6.383,20.4,20.4,0,0,1,1.118-7.118,14.24,14.24,0,0,1,2.971-4.941,11.486,11.486,0,0,1,4.235-2.853,13.493,13.493,0,0,1,4.853-.912,16.291,16.291,0,0,1,2.882.265,12.708,12.708,0,0,1,2.824.853,11.128,11.128,0,0,1,2.5,1.5,8.326,8.326,0,0,1,1.912,2.147h.117V9.6h6.706ZM273.145,36.719a14.8,14.8,0,0,0,.5,3.823,10.434,10.434,0,0,0,1.529,3.353,7.727,7.727,0,0,0,2.618,2.353,7.635,7.635,0,0,0,3.765.882,7.526,7.526,0,0,0,3.852-.941,7.97,7.97,0,0,0,2.647-2.47,11.188,11.188,0,0,0,1.53-3.442,15.4,15.4,0,0,0,.5-3.911q0-5.059-2.265-7.883a7.46,7.46,0,0,0-6.147-2.823,7.59,7.59,0,0,0-3.971.97,8.165,8.165,0,0,0-2.647,2.529,10.524,10.524,0,0,0-1.47,3.53A18.338,18.338,0,0,0,273.145,36.719Zm71.423-13.766a14.942,14.942,0,0,0-1.294-3.353,9.327,9.327,0,0,0-2.118-2.647,9.443,9.443,0,0,0-3.029-1.735,12,12,0,0,0-4.03-.617,11.782,11.782,0,0,0-5.794,1.352,11.371,11.371,0,0,0-3.971,3.618,16.29,16.29,0,0,0-2.264,5.147,23.876,23.876,0,0,0,0,11.765,16.27,16.27,0,0,0,2.264,5.147,11.342,11.342,0,0,0,3.971,3.618A11.76,11.76,0,0,0,334.1,46.6a10.446,10.446,0,0,0,4.353-.853,9.694,9.694,0,0,0,3.236-2.353,11.084,11.084,0,0,0,2.117-3.5,16.8,16.8,0,0,0,1-4.294h7.177a19.95,19.95,0,0,1-1.617,6.883,16.9,16.9,0,0,1-3.736,5.382,16.511,16.511,0,0,1-5.53,3.5,19.168,19.168,0,0,1-7,1.235,19.816,19.816,0,0,1-8.441-1.735,18.571,18.571,0,0,1-6.324-4.735,21.165,21.165,0,0,1-3.97-7,25.914,25.914,0,0,1-1.383-8.529,25.745,25.745,0,0,1,1.383-8.471,21.16,21.16,0,0,1,3.97-7,18.9,18.9,0,0,1,6.324-4.765A19.514,19.514,0,0,1,334.1,8.6a22.245,22.245,0,0,1,6.647.971,17.2,17.2,0,0,1,5.5,2.823,14.668,14.668,0,0,1,3.852,4.5,15.652,15.652,0,0,1,1.824,6.058Zm27.117,29.472a16.572,16.572,0,0,1-6.5-1.206,13.842,13.842,0,0,1-4.824-3.324,14.2,14.2,0,0,1-3-5.059,19.451,19.451,0,0,1-1.029-6.47,19.269,19.269,0,0,1,1.029-6.412,14.208,14.208,0,0,1,3-5.059,13.855,13.855,0,0,1,4.824-3.324,18.12,18.12,0,0,1,13,0,13.874,13.874,0,0,1,4.824,3.324,14.237,14.237,0,0,1,3,5.059,19.294,19.294,0,0,1,1.029,6.412,19.477,19.477,0,0,1-1.029,6.47,14.228,14.228,0,0,1-3,5.059,13.86,13.86,0,0,1-4.824,3.324A16.583,16.583,0,0,1,371.685,52.425Zm0-5.295a7.693,7.693,0,0,0,3.883-.941,8.179,8.179,0,0,0,2.705-2.47,10.766,10.766,0,0,0,1.559-3.442,15.436,15.436,0,0,0,0-7.794,10.4,10.4,0,0,0-1.559-3.441,8.327,8.327,0,0,0-2.705-2.442,8.488,8.488,0,0,0-7.765,0,8.3,8.3,0,0,0-2.706,2.442,10.358,10.358,0,0,0-1.559,3.441,15.436,15.436,0,0,0,0,7.794,10.723,10.723,0,0,0,1.559,3.442,8.153,8.153,0,0,0,2.706,2.47A7.681,7.681,0,0,0,371.685,47.13Zm21.7-25.941h6.353v4.235h.176a17.3,17.3,0,0,1,1.647-2.059,9,9,0,0,1,1.971-1.588,10.016,10.016,0,0,1,2.5-1.03,12.455,12.455,0,0,1,3.236-.382,11.014,11.014,0,0,1,5.147,1.236,6.986,6.986,0,0,1,3.382,3.823,13.549,13.549,0,0,1,3.942-3.706,10.63,10.63,0,0,1,5.587-1.353q4.824,0,7.5,2.353T437.5,30.6v21H430.8V33.836q0-1.822-.117-3.323A6.79,6.79,0,0,0,430,27.924a3.855,3.855,0,0,0-1.676-1.676,6.634,6.634,0,0,0-3.059-.588q-3.412,0-4.941,2.117a10.115,10.115,0,0,0-1.53,6V51.6h-6.706V32.071a8.277,8.277,0,0,0-1.147-4.794q-1.146-1.617-4.206-1.617a6.151,6.151,0,0,0-2.5.529,6.231,6.231,0,0,0-2.118,1.53,7.646,7.646,0,0,0-1.47,2.47,9.385,9.385,0,0,0-.559,3.353V51.6h-6.706Zm52.536,0h6.353v4.235h.177a17.3,17.3,0,0,1,1.647-2.059,9,9,0,0,1,1.971-1.588,10,10,0,0,1,2.5-1.03,12.447,12.447,0,0,1,3.235-.382,11.011,11.011,0,0,1,5.147,1.236,6.982,6.982,0,0,1,3.382,3.823,13.561,13.561,0,0,1,3.942-3.706,10.636,10.636,0,0,1,5.588-1.353q4.824,0,7.5,2.353T490.04,30.6v21h-6.706V33.836q0-1.822-.118-3.323a6.79,6.79,0,0,0-.677-2.589,3.844,3.844,0,0,0-1.676-1.676,6.628,6.628,0,0,0-3.059-.588q-3.411,0-4.941,2.117a10.123,10.123,0,0,0-1.529,6V51.6h-6.707V32.071a8.277,8.277,0,0,0-1.147-4.794q-1.146-1.617-4.206-1.617a6.154,6.154,0,0,0-2.5.529,6.217,6.217,0,0,0-2.117,1.53,7.648,7.648,0,0,0-1.471,2.47,9.385,9.385,0,0,0-.559,3.353V51.6h-6.706ZM502.934,38.13a11.685,11.685,0,0,0,.5,3.412,8.355,8.355,0,0,0,1.5,2.882,7.212,7.212,0,0,0,2.529,1.971,8.338,8.338,0,0,0,3.647.735,8.053,8.053,0,0,0,4.736-1.264,7.475,7.475,0,0,0,2.676-3.794h6.353a12.607,12.607,0,0,1-4.941,7.676,13.454,13.454,0,0,1-4.088,2,16.5,16.5,0,0,1-4.736.677,16.108,16.108,0,0,1-6.353-1.177,13.121,13.121,0,0,1-4.676-3.294A13.971,13.971,0,0,1,497.2,42.9a20.551,20.551,0,0,1-.971-6.471,18.314,18.314,0,0,1,1.029-6.147A15.732,15.732,0,0,1,500.2,25.16a13.8,13.8,0,0,1,10.736-4.8,13.629,13.629,0,0,1,6.441,1.5,14.149,14.149,0,0,1,4.736,3.971,16.094,16.094,0,0,1,2.735,5.677,17.421,17.421,0,0,1,.441,6.617Zm15.647-4.412a10.864,10.864,0,0,0-.676-3.059,8.176,8.176,0,0,0-1.53-2.559,7.574,7.574,0,0,0-2.353-1.764,6.943,6.943,0,0,0-3.088-.676,8.057,8.057,0,0,0-3.206.617,7.339,7.339,0,0,0-2.471,1.706,8.458,8.458,0,0,0-1.647,2.559,8.913,8.913,0,0,0-.676,3.176Zm12.584-12.529h6.294v5.882h.118a6.778,6.778,0,0,1,1.147-2.411,11.112,11.112,0,0,1,2.059-2.147,10.361,10.361,0,0,1,2.676-1.559,8.014,8.014,0,0,1,3-.589,14.875,14.875,0,0,1,1.618.059c.294.039.6.079.912.118v6.47c-.471-.077-.952-.147-1.442-.205a12.047,12.047,0,0,0-1.441-.089,7.706,7.706,0,0,0-3.206.677,7.344,7.344,0,0,0-2.617,2,9.769,9.769,0,0,0-1.765,3.265,14.1,14.1,0,0,0-.648,4.47V51.6h-6.705ZM572.1,31.365a6.294,6.294,0,0,0-2.265-4.265,7.392,7.392,0,0,0-4.676-1.44,9.67,9.67,0,0,0-2.765.44,6.571,6.571,0,0,0-2.706,1.648A9.245,9.245,0,0,0,557.63,31.1a15.944,15.944,0,0,0-.823,5.618,16.443,16.443,0,0,0,.441,3.764,10.276,10.276,0,0,0,1.411,3.353,7.632,7.632,0,0,0,2.5,2.383,7.108,7.108,0,0,0,3.706.911,6.744,6.744,0,0,0,4.852-1.823,8.478,8.478,0,0,0,2.383-5.118h6.706q-.942,5.943-4.5,9.089t-9.441,3.147a15.561,15.561,0,0,1-6.324-1.206,13.4,13.4,0,0,1-4.618-3.294,13.984,13.984,0,0,1-2.853-4.971,19.42,19.42,0,0,1-.97-6.235,21.292,21.292,0,0,1,.941-6.413,14.676,14.676,0,0,1,2.823-5.205,13.207,13.207,0,0,1,4.677-3.471,15.783,15.783,0,0,1,6.559-1.265,18.322,18.322,0,0,1,5.029.677,13.239,13.239,0,0,1,4.236,2.029,10.82,10.82,0,0,1,3.029,3.412,11.691,11.691,0,0,1,1.412,4.882Zm17.412,6.765a11.685,11.685,0,0,0,.5,3.412,8.355,8.355,0,0,0,1.5,2.882,7.212,7.212,0,0,0,2.529,1.971,8.338,8.338,0,0,0,3.647.735,8.053,8.053,0,0,0,4.736-1.264,7.475,7.475,0,0,0,2.676-3.794h6.353a12.607,12.607,0,0,1-4.941,7.676,13.454,13.454,0,0,1-4.088,2,16.5,16.5,0,0,1-4.736.677,16.108,16.108,0,0,1-6.353-1.177,13.121,13.121,0,0,1-4.676-3.294,13.971,13.971,0,0,1-2.882-5.059,20.551,20.551,0,0,1-.971-6.471,18.314,18.314,0,0,1,1.029-6.147,15.732,15.732,0,0,1,2.941-5.117,13.8,13.8,0,0,1,10.736-4.8,13.629,13.629,0,0,1,6.441,1.5,14.149,14.149,0,0,1,4.736,3.971,16.094,16.094,0,0,1,2.735,5.677,17.421,17.421,0,0,1,.441,6.617Zm15.647-4.412a10.864,10.864,0,0,0-.676-3.059,8.176,8.176,0,0,0-1.53-2.559,7.581,7.581,0,0,0-2.352-1.764,6.95,6.95,0,0,0-3.089-.676,8.057,8.057,0,0,0-3.206.617,7.339,7.339,0,0,0-2.471,1.706,8.458,8.458,0,0,0-1.647,2.559,8.935,8.935,0,0,0-.676,3.176Zm-390.4,45.633A14.924,14.924,0,0,0,213.461,76a9.306,9.306,0,0,0-2.117-2.647,9.448,9.448,0,0,0-3.03-1.735A12,12,0,0,0,204.285,71a11.769,11.769,0,0,0-5.794,1.353,11.371,11.371,0,0,0-3.971,3.618,16.315,16.315,0,0,0-2.265,5.147,23.908,23.908,0,0,0,0,11.765,16.3,16.3,0,0,0,2.265,5.147,11.355,11.355,0,0,0,3.971,3.619A11.768,11.768,0,0,0,204.285,103a10.446,10.446,0,0,0,4.353-.852,9.679,9.679,0,0,0,3.235-2.354,11.079,11.079,0,0,0,2.118-3.5,16.8,16.8,0,0,0,1-4.294h7.177a19.945,19.945,0,0,1-1.618,6.882,16.872,16.872,0,0,1-3.736,5.383,16.483,16.483,0,0,1-5.529,3.5,19.172,19.172,0,0,1-7,1.235,19.824,19.824,0,0,1-8.442-1.736,18.551,18.551,0,0,1-6.323-4.735,21.177,21.177,0,0,1-3.971-7,26.83,26.83,0,0,1,0-17,21.152,21.152,0,0,1,3.971-7,18.905,18.905,0,0,1,6.323-4.766A19.536,19.536,0,0,1,204.285,65a22.245,22.245,0,0,1,6.647.971,17.191,17.191,0,0,1,5.5,2.823,14.665,14.665,0,0,1,3.853,4.5,15.662,15.662,0,0,1,1.823,6.059Zm27.119,29.472a16.571,16.571,0,0,1-6.5-1.206,13.819,13.819,0,0,1-4.824-3.324,14.161,14.161,0,0,1-3-5.059,20.654,20.654,0,0,1,0-12.882,14.183,14.183,0,0,1,3-5.06,13.844,13.844,0,0,1,4.824-3.323,18.12,18.12,0,0,1,13,0,13.858,13.858,0,0,1,4.823,3.323,14.229,14.229,0,0,1,3,5.06,20.692,20.692,0,0,1,0,12.882,14.207,14.207,0,0,1-3,5.059,13.834,13.834,0,0,1-4.823,3.324A16.588,16.588,0,0,1,241.874,108.823Zm0-5.294a7.688,7.688,0,0,0,3.883-.941,8.168,8.168,0,0,0,2.706-2.472,10.783,10.783,0,0,0,1.559-3.441,15.436,15.436,0,0,0,0-7.794,10.418,10.418,0,0,0-1.559-3.441A8.309,8.309,0,0,0,245.757,83a8.48,8.48,0,0,0-7.765,0,8.309,8.309,0,0,0-2.706,2.442,10.376,10.376,0,0,0-1.558,3.441,15.407,15.407,0,0,0,0,7.794,10.738,10.738,0,0,0,1.558,3.441,8.168,8.168,0,0,0,2.706,2.472A7.684,7.684,0,0,0,241.874,103.529ZM263.2,77.586h6.353v4.471l.117.118a11.263,11.263,0,0,1,4-3.971,10.664,10.664,0,0,1,5.47-1.441,11.37,11.37,0,0,1,7.882,2.588q2.883,2.591,2.883,7.765V108H283.2V88.881q-.119-3.588-1.529-5.206a5.561,5.561,0,0,0-4.413-1.618,7.273,7.273,0,0,0-3.058.618,6.629,6.629,0,0,0-2.3,1.706,8.038,8.038,0,0,0-1.47,2.559,9.132,9.132,0,0,0-.53,3.117V108h-6.7Zm31.464,0h5.06V68.469h6.7v9.117h6.059v5h-6.059V98.822a16.394,16.394,0,0,0,.088,1.824,3.149,3.149,0,0,0,.412,1.294,1.96,1.96,0,0,0,.971.794,4.742,4.742,0,0,0,1.764.265q.706,0,1.412-.029a6.936,6.936,0,0,0,1.412-.206v5.177q-1.118.117-2.176.235a19.816,19.816,0,0,1-2.176.117,14.863,14.863,0,0,1-4.266-.5,5.671,5.671,0,0,1-2.529-1.47,5.068,5.068,0,0,1-1.235-2.441,18.138,18.138,0,0,1-.382-3.354V82.587h-5.06Zm24.007,0h6.294v5.883h.118a6.791,6.791,0,0,1,1.147-2.412,11.171,11.171,0,0,1,2.059-2.147,10.419,10.419,0,0,1,2.676-1.559,8.032,8.032,0,0,1,3-.588,14.6,14.6,0,0,1,1.618.059c.294.039.6.079.912.118v6.47q-.707-.117-1.441-.206a12.284,12.284,0,0,0-1.442-.088,7.709,7.709,0,0,0-3.206.677,7.352,7.352,0,0,0-2.617,2,9.773,9.773,0,0,0-1.765,3.264,14.114,14.114,0,0,0-.647,4.471V108h-6.706ZM365.6,101.235a3.55,3.55,0,0,0,.324,1.764,1.36,1.36,0,0,0,1.264.53h.707a4.413,4.413,0,0,0,.94-.117v4.646c-.235.079-.539.166-.911.265s-.756.186-1.147.265-.785.136-1.177.177-.726.058-1,.058a6.469,6.469,0,0,1-3.411-.823,4.1,4.1,0,0,1-1.766-2.883,11.866,11.866,0,0,1-4.911,2.824,19.322,19.322,0,0,1-5.618.882,13.792,13.792,0,0,1-3.941-.558,10.332,10.332,0,0,1-3.323-1.648,7.866,7.866,0,0,1-2.295-2.764,8.521,8.521,0,0,1-.853-3.914,9.024,9.024,0,0,1,1.03-4.587,7.624,7.624,0,0,1,2.706-2.766,12.276,12.276,0,0,1,3.764-1.441q2.088-.441,4.206-.676a34.465,34.465,0,0,1,3.471-.5,16.326,16.326,0,0,0,2.912-.5,4.459,4.459,0,0,0,2-1.088,3,3,0,0,0,.735-2.206,3.438,3.438,0,0,0-.618-2.118,4.164,4.164,0,0,0-1.529-1.265,6.651,6.651,0,0,0-2.03-.588,16.444,16.444,0,0,0-2.117-.147,8.431,8.431,0,0,0-4.648,1.177,4.591,4.591,0,0,0-2.059,3.647h-6.7A10.1,10.1,0,0,1,341.014,82a9.768,9.768,0,0,1,3.147-3.117,12.913,12.913,0,0,1,4.325-1.648,25.786,25.786,0,0,1,4.941-.47,20.865,20.865,0,0,1,4.411.47,12.563,12.563,0,0,1,3.912,1.53,8.462,8.462,0,0,1,2.794,2.736,7.492,7.492,0,0,1,1.059,4.087ZM358.9,92.763a8.122,8.122,0,0,1-3.765,1.206q-2.235.207-4.47.618a14.217,14.217,0,0,0-2.059.5,6.223,6.223,0,0,0-1.765.882,3.9,3.9,0,0,0-1.206,1.47,5.041,5.041,0,0,0-.441,2.207,2.812,2.812,0,0,0,.647,1.883,4.678,4.678,0,0,0,1.559,1.2,7.221,7.221,0,0,0,2,.619,12.479,12.479,0,0,0,1.971.176,10.882,10.882,0,0,0,2.412-.3,8,8,0,0,0,2.441-1,6.419,6.419,0,0,0,1.912-1.8,4.539,4.539,0,0,0,.764-2.676Zm35.231-5a6.3,6.3,0,0,0-2.265-4.265,7.4,7.4,0,0,0-4.676-1.441,9.645,9.645,0,0,0-2.766.441,6.557,6.557,0,0,0-2.7,1.648,9.235,9.235,0,0,0-2.059,3.352,15.949,15.949,0,0,0-.824,5.618,16.389,16.389,0,0,0,.442,3.764,10.275,10.275,0,0,0,1.411,3.355,7.636,7.636,0,0,0,2.5,2.382,7.111,7.111,0,0,0,3.706.912,6.747,6.747,0,0,0,4.853-1.824,8.486,8.486,0,0,0,2.383-5.118h6.706q-.942,5.942-4.5,9.089t-9.442,3.147a15.559,15.559,0,0,1-6.323-1.206,13.368,13.368,0,0,1-4.618-3.294,13.969,13.969,0,0,1-2.853-4.971,19.426,19.426,0,0,1-.971-6.236,21.29,21.29,0,0,1,.942-6.412,14.661,14.661,0,0,1,2.823-5.2,13.2,13.2,0,0,1,4.677-3.471,15.778,15.778,0,0,1,6.558-1.265,18.329,18.329,0,0,1,5.03.677,13.244,13.244,0,0,1,4.235,2.029,10.812,10.812,0,0,1,3.03,3.412,11.691,11.691,0,0,1,1.412,4.882Zm9.117-10.177h5.06V68.469h6.7v9.117h6.059v5H415.01V98.822a16.155,16.155,0,0,0,.088,1.824,3.149,3.149,0,0,0,.412,1.294,1.956,1.956,0,0,0,.971.794,4.738,4.738,0,0,0,1.764.265q.707,0,1.412-.029a6.936,6.936,0,0,0,1.412-.206v5.177q-1.118.117-2.176.235a19.821,19.821,0,0,1-2.177.117,14.855,14.855,0,0,1-4.265-.5,5.671,5.671,0,0,1-2.529-1.47,5.078,5.078,0,0,1-1.236-2.441,18.23,18.23,0,0,1-.381-3.354V82.587h-5.06Zm38.633,0h6.353v4.471l.117.118a11.263,11.263,0,0,1,4-3.971,10.664,10.664,0,0,1,5.47-1.441,11.373,11.373,0,0,1,7.883,2.588q2.881,2.591,2.882,7.765V108h-6.706V88.881q-.118-3.588-1.529-5.206a5.559,5.559,0,0,0-4.413-1.618,7.279,7.279,0,0,0-3.058.618,6.616,6.616,0,0,0-2.294,1.706,8.021,8.021,0,0,0-1.471,2.559,9.132,9.132,0,0,0-.53,3.117V108h-6.705Zm61.883,28.767c0,4.589-1.285,8.067-3.853,10.323S493.643,120,488.82,120a23.257,23.257,0,0,1-4.618-.47,13.746,13.746,0,0,1-4.236-1.588,10.223,10.223,0,0,1-3.2-2.941,8.939,8.939,0,0,1-1.53-4.472h6.706a5.373,5.373,0,0,0,1,2.3,5.156,5.156,0,0,0,1.677,1.382,6.369,6.369,0,0,0,2.147.647,19.916,19.916,0,0,0,2.471.148q4.057,0,5.941-2a8.11,8.11,0,0,0,1.882-5.766v-4.588h-.118a10.2,10.2,0,0,1-3.853,3.941A10.331,10.331,0,0,1,487.82,108a13.871,13.871,0,0,1-6.207-1.266,11.809,11.809,0,0,1-4.235-3.47,14.416,14.416,0,0,1-2.441-5.088A24.008,24.008,0,0,1,474.172,92a17.939,17.939,0,0,1,.942-5.824,14.827,14.827,0,0,1,2.705-4.853A12.975,12.975,0,0,1,482.143,78a13.168,13.168,0,0,1,5.794-1.235,11.671,11.671,0,0,1,5.294,1.206,8.187,8.187,0,0,1,3.706,3.794h.118V77.586h6.706Zm-14.883-3.648a7.114,7.114,0,0,0,6.324-3.324,10.622,10.622,0,0,0,1.412-3.412,17.086,17.086,0,0,0,.441-3.853,15.035,15.035,0,0,0-.47-3.764,10.148,10.148,0,0,0-1.442-3.236,6.974,6.974,0,0,0-2.529-2.235,7.9,7.9,0,0,0-3.736-.824,7.055,7.055,0,0,0-3.764.941,7.521,7.521,0,0,0-2.471,2.442,10.507,10.507,0,0,0-1.353,3.412,17.932,17.932,0,0,0-.412,3.793,14.371,14.371,0,0,0,.471,3.677,10.127,10.127,0,0,0,1.441,3.206,7.681,7.681,0,0,0,2.471,2.295A7,7,0,0,0,488.878,102.705ZM258.34,9.6h-6.706V44.151a18.218,18.218,0,0,0,.381,3.353,5.081,5.081,0,0,0,1.236,2.442,5.68,5.68,0,0,0,2.529,1.47,14.86,14.86,0,0,0,4.265.5,19.574,19.574,0,0,0,2.177-.118q1.059-.117,2.176-.235V46.387a7.078,7.078,0,0,1-1.412.206q-.7.028-1.412.029a4.759,4.759,0,0,1-1.764-.265,1.965,1.965,0,0,1-.971-.794,3.159,3.159,0,0,1-.412-1.294,16.174,16.174,0,0,1-.088-1.825ZM427.128,66h6.706v6.353h-6.706Zm0,11.588h6.706V108h-6.706ZM176.588,108l-8.441-9.766a19.2,19.2,0,0,0,2.31-4.883,28.572,28.572,0,0,0,1.14-5.411h-6.162a22.321,22.321,0,0,1-.616,3.353q-.37,1.294-.74,2.293l-6.839-7.881-6.131-7.324a10.655,10.655,0,0,1-.986-1.765,4.828,4.828,0,0,1-.4-1.971,4.406,4.406,0,0,1,1.356-3.382A4.693,4.693,0,0,1,154.405,70a4.164,4.164,0,0,1,3.266,1.382,5.293,5.293,0,0,1,1.232,3.559h6.285a9.394,9.394,0,0,0-.923-4.294A9.538,9.538,0,0,0,161.83,67.5a9.995,9.995,0,0,0-3.512-1.883,13.856,13.856,0,0,0-4.1-.617,12.358,12.358,0,0,0-4.19.706,10.317,10.317,0,0,0-3.45,2.029,9.431,9.431,0,0,0-2.311,3.147A9.811,9.811,0,0,0,143.437,75a8.952,8.952,0,0,0,.37,2.588,11.914,11.914,0,0,0,.985,2.354,16.253,16.253,0,0,0,1.418,2.147c.088.113.739.894,1.761,2.115-16.392,7.3-10.789,24.621,3.908,24.621,5.967,0,9.373-2.585,12.077-5.529l.022-.031L167.961,108ZM160.2,98.822c-2.242,3.282-4.771,4.707-8.318,4.707-7.881,0-11.14-10.977-.168-14.866,2.581,3.074,5.7,6.784,8.51,10.13Z" fill="#004070"/></svg>