<svg width="65" height="64" viewBox="0 0 65 64" fill="none" xmlns="http://www.w3.org/2000/svg">
<path fill-rule="evenodd" clip-rule="evenodd" d="M0.0175781 64.0151H64.0176V0.191406H0.0175781V64.0151Z" fill="#E30613"/>
<path fill-rule="evenodd" clip-rule="evenodd" d="M8.16752 34.374C6.73509 34.374 6.09683 35.5446 6.09683 36.9987C6.09683 38.2743 6.65976 39.5591 8.16752 39.5591C9.20088 39.5591 9.7691 38.878 9.8986 37.8452H11.5213C11.3363 39.8937 9.92502 40.962 8.16752 40.962C5.81669 40.962 4.41994 39.2218 4.41994 36.9987C4.41994 34.6522 5.88276 32.9593 8.16752 32.9593C9.91974 32.9593 11.2663 34.0171 11.4566 35.7139H9.83385C9.7202 34.9462 8.98152 34.374 8.16752 34.374Z" fill="white"/>
<path fill-rule="evenodd" clip-rule="evenodd" d="M15.7283 38.6479C15.7283 39.6046 15.1945 39.9222 14.4981 39.9222C14.025 39.9222 13.5704 39.787 13.5704 39.2162C13.5704 38.8277 13.7594 38.5259 14.469 38.4012C14.5893 38.3802 14.7095 38.3631 14.8311 38.3474C15.1218 38.3198 15.5737 38.2345 15.7283 38.0784V38.6479ZM17.2424 39.5575V36.677C17.2424 35.2386 15.6792 35.1022 14.8202 35.1022C13.6481 35.1022 12.3108 35.5037 12.2263 36.9552H13.742C13.8014 36.32 14.186 36.1205 14.7462 36.1205C15.2735 36.1205 15.7281 36.2295 15.7281 36.8699C15.7452 37.2334 15.4651 37.4289 14.5969 37.5129C14.3762 37.5326 14.1516 37.5628 13.9243 37.5982C13.0337 37.7386 12.0545 38.0011 12.0545 39.278C12.0545 40.3554 12.7984 40.9302 13.9349 40.9302C14.519 40.9302 15.296 40.7911 15.7928 40.2557C15.7981 40.3856 15.8496 40.6586 15.8985 40.7911H17.4367C17.2741 40.5313 17.2424 39.9604 17.2424 39.5575Z" fill="white"/>
<path fill-rule="evenodd" clip-rule="evenodd" d="M18.322 40.7905H19.8377V35.2511H18.322V40.7905ZM18.3224 34.3947H19.8381V33.1414H18.3224V34.3947Z" fill="white"/>
<path fill-rule="evenodd" clip-rule="evenodd" d="M24.1901 39.2146C24.1901 39.0873 24.1425 38.9757 24.0473 38.8839C23.5082 38.3655 21.7692 38.4679 21.0517 37.7382C20.8482 37.5322 20.7187 37.2579 20.7187 36.8812C20.7187 35.733 21.5379 35.1017 23.121 35.1017C24.1583 35.1017 25.4362 35.4141 25.5564 36.8694H24.1147C24.0923 36.2854 23.6271 36.1214 23.0787 36.1214C22.6995 36.1214 22.2343 36.1988 22.2343 36.6345C22.2343 36.9967 22.6189 37.1726 23.3258 37.3209C23.532 37.3616 23.7421 37.4088 23.9548 37.4587C24.8243 37.6555 25.7044 37.9797 25.7044 39.0125C25.7044 40.145 24.8957 40.9311 23.1858 40.9311C21.8036 40.9311 20.6433 40.3944 20.5905 38.9902H22.0322C22.0322 39.607 22.5554 39.9219 23.1963 39.9219C23.5981 39.9219 24.1901 39.7579 24.1901 39.2146Z" fill="white"/>
<path fill-rule="evenodd" clip-rule="evenodd" d="M19.1558 50.3102C19.5575 50.3102 20.1495 50.1462 20.1495 49.6029C20.1495 49.473 20.1019 49.3627 20.0054 49.2722C19.4676 48.7525 17.7273 48.8549 17.0111 48.1265C16.8062 47.9192 16.6781 47.6436 16.6781 47.2682C16.6781 46.12 17.4974 45.49 19.0804 45.49C20.1164 45.49 21.3956 45.8011 21.5158 47.2578H20.0742C20.0517 46.6738 19.5865 46.5084 19.0381 46.5084C18.6589 46.5084 18.1924 46.5871 18.1924 47.0215C18.1924 47.385 18.577 47.5609 19.2853 47.7079C19.4914 47.7499 19.7002 47.7971 19.9143 47.847C20.7838 48.0425 21.6638 48.3667 21.6638 49.3995C21.6638 50.5333 20.8551 51.3181 19.1452 51.3181C17.763 51.3181 16.6027 50.7814 16.5499 49.3785H17.9916C17.9916 49.994 18.5149 50.3102 19.1558 50.3102Z" fill="white"/>
<path fill-rule="evenodd" clip-rule="evenodd" d="M56.6492 50.3102C57.051 50.3102 57.6416 50.1462 57.6416 49.6029C57.6416 49.473 57.5941 49.3627 57.4989 49.2722C56.9598 48.7525 55.2208 48.8549 54.5032 48.1265C54.2997 47.9192 54.1716 47.6436 54.1716 47.2682C54.1716 46.12 54.9895 45.49 56.5726 45.49C57.6099 45.49 58.8878 45.8011 59.0093 47.2578H57.5663C57.5452 46.6738 57.0787 46.5084 56.5316 46.5084C56.1511 46.5084 55.6859 46.5871 55.6859 47.0215C55.6859 47.385 56.0705 47.5609 56.7774 47.7079C56.9836 47.7499 57.1937 47.7971 57.4064 47.847C58.2759 48.0425 59.156 48.3667 59.156 49.3995C59.156 50.5333 58.3486 51.3181 56.6374 51.3181C55.2538 51.3181 54.0949 50.7814 54.0434 49.3785H55.4851C55.4851 49.994 56.007 50.3102 56.6492 50.3102Z" fill="white"/>
<path fill-rule="evenodd" clip-rule="evenodd" d="M28.8577 39.9219C29.2594 39.9219 29.8501 39.7579 29.8501 39.2146C29.8501 39.0873 29.8025 38.9757 29.7074 38.8839C29.1696 38.3655 27.4292 38.4679 26.7117 37.7382C26.5082 37.5322 26.38 37.2579 26.38 36.8812C26.38 35.733 27.198 35.1017 28.7824 35.1017C29.8184 35.1017 31.0962 35.4141 31.2178 36.8694H29.7748C29.7536 36.2854 29.2872 36.1214 28.7401 36.1214C28.3595 36.1214 27.8944 36.1988 27.8944 36.6345C27.8944 36.9967 28.2789 37.1726 28.9859 37.3209C29.192 37.3616 29.4021 37.4088 29.6149 37.4587C30.4844 37.6555 31.3645 37.9797 31.3645 39.0125C31.3645 40.145 30.5571 40.9311 28.8458 40.9311C27.4636 40.9311 26.3047 40.3944 26.2518 38.9902H27.6935C27.6935 39.607 28.2155 39.9219 28.8577 39.9219Z" fill="white"/>
<path fill-rule="evenodd" clip-rule="evenodd" d="M34.6933 36.2477C33.8951 36.2477 33.4762 36.7726 33.434 37.4262H35.8997C35.7557 36.6453 35.4267 36.2477 34.6933 36.2477ZM34.7895 39.7936C35.3987 39.7936 35.885 39.4196 35.9854 39.0758H37.32C36.8483 40.5456 35.8149 40.9288 34.7353 40.9288C32.9038 40.9288 31.9154 39.6519 31.9154 38.0259C31.9154 36.3435 33.0835 35.102 34.7353 35.102C36.728 35.102 37.5196 36.8343 37.4165 38.392H33.4337C33.4773 39.4052 33.9649 39.7936 34.7895 39.7936Z" fill="white"/>
<path fill-rule="evenodd" clip-rule="evenodd" d="M13.3453 46.636C12.5471 46.636 12.1282 47.1597 12.0859 47.8132H14.5517C14.4077 47.0324 14.0787 46.636 13.3453 46.636ZM13.4417 50.1819C14.0509 50.1819 14.5372 49.8079 14.6389 49.4641H15.9722C15.5005 50.9326 14.4671 51.3158 13.3875 51.3158C11.556 51.3158 10.5676 50.0389 10.5676 48.4129C10.5676 46.7318 11.737 45.489 13.3875 45.489C15.3802 45.489 16.1718 47.2226 16.0687 48.779H12.0859C12.1295 49.7935 12.6171 50.1819 13.4417 50.1819Z" fill="white"/>
<path fill-rule="evenodd" clip-rule="evenodd" d="M7.20633 46.636C6.27076 46.636 5.87169 47.4129 5.87169 48.4037C5.87169 49.241 6.24301 50.1819 7.20633 50.1819C8.20666 50.1819 8.50927 49.3014 8.50927 48.3932C8.50927 47.4969 8.18948 46.636 7.20633 46.636ZM8.50898 50.4707C8.15219 51.073 7.55622 51.3158 6.8334 51.3158C5.14197 51.3158 4.35571 49.8906 4.35571 48.3591C4.35571 46.7463 5.27939 45.489 6.79904 45.489C7.44654 45.489 8.08876 45.7659 8.43498 46.3145H8.45612V43.5297H9.97312V51.178H8.53144V50.4707H8.50898Z" fill="white"/>
<path fill-rule="evenodd" clip-rule="evenodd" d="M27.784 49.7645C28.9257 49.7645 29.6829 48.981 29.6829 47.4718C29.6829 46.0676 29.2389 44.9443 27.4841 44.9443H26.2895V49.7645H27.784ZM27.9012 43.5296C29.8305 43.5296 31.3607 44.733 31.3607 47.3117C31.3607 49.6004 30.1596 51.1779 27.9012 51.1779H24.6135V43.5296H27.9012Z" fill="white"/>
<path fill-rule="evenodd" clip-rule="evenodd" d="M34.6985 46.636C33.9004 46.636 33.4815 47.1597 33.4392 47.8132H35.905C35.761 47.0324 35.4319 46.636 34.6985 46.636ZM34.7948 50.1819C35.4039 50.1819 35.8889 49.8079 35.9907 49.4641H37.3253C36.8522 50.9326 35.8202 51.3158 34.7406 51.3158C32.9091 51.3158 31.9207 50.0389 31.9207 48.4129C31.9207 46.7318 33.0888 45.489 34.7406 45.489C36.7333 45.489 37.5248 47.2226 37.4218 48.779H33.439C33.4826 49.7935 33.9702 50.1819 34.7948 50.1819Z" fill="white"/>
<path fill-rule="evenodd" clip-rule="evenodd" d="M35.008 42.7683L33.8769 44.6647H34.9327L36.6743 42.7683H35.008Z" fill="white"/>
<path fill-rule="evenodd" clip-rule="evenodd" d="M42.14 48.4253C42.14 47.4135 41.7 46.6366 40.8159 46.6366C39.9649 46.6366 39.5024 47.3072 39.5024 48.4253C39.5024 49.3886 39.8857 50.1825 40.8265 50.1825C41.7594 50.1825 42.14 49.4174 42.14 48.4253ZM39.4803 45.6391V46.3477H39.5027C39.8807 45.7335 40.4819 45.4895 41.1466 45.4895C42.9424 45.4895 43.6547 47 43.6547 48.4685C43.6547 49.9763 42.8367 51.3175 41.2325 51.3175C40.5163 51.3175 39.9322 51.0144 39.5781 50.4934H39.5556V53.1167H38.0386V45.6391H39.4803Z" fill="white"/>
<path fill-rule="evenodd" clip-rule="evenodd" d="M47.0956 50.1824C48.1157 50.1824 48.4421 49.3307 48.4421 48.4133C48.4421 47.5708 48.1646 46.6364 47.0956 46.6364C46.1507 46.6364 45.7609 47.4094 45.7609 48.4133C45.7609 49.3897 46.1283 50.1824 47.0956 50.1824ZM47.8015 43.4317L48.9762 44.9553H47.7275L47.0655 44.0852L46.3809 44.9553H45.2392L46.4113 43.4317H47.8015ZM47.0957 45.4895C48.8571 45.4895 49.9579 46.6653 49.9579 48.4133C49.9579 50.0866 48.9298 51.3175 47.0957 51.3175C45.4729 51.3175 44.2453 50.2873 44.2453 48.4133C44.2453 46.6272 45.3897 45.4895 47.0957 45.4895Z" fill="white"/>
<path fill-rule="evenodd" clip-rule="evenodd" d="M53.6913 45.6389V46.6572H52.58V49.3987C52.58 49.9105 52.7121 50.0418 53.2222 50.0418C53.3834 50.0418 53.5538 50.0286 53.6913 49.9985V51.1782C53.4243 51.2215 53.0504 51.2321 52.8046 51.2321C51.7924 51.2321 51.0643 50.9958 51.0643 49.9263V46.6572H50.1432V45.6389H51.0643V43.9788H52.58V45.6389H53.6913Z" fill="white"/>
<path fill-rule="evenodd" clip-rule="evenodd" d="M4.56769 56.8631V56.8526C4.56769 55.7187 5.43191 54.7581 6.64763 54.7581C7.34799 54.7581 7.78274 54.9549 8.19767 55.3066L7.74706 55.846C7.43652 55.5783 7.12995 55.4129 6.61855 55.4129C5.87459 55.4129 5.31034 56.0665 5.31034 56.8394V56.8526C5.31034 57.6846 5.85873 58.2974 6.68198 58.2974C7.06256 58.2974 7.40613 58.1754 7.65588 57.989V57.2331H6.62516V56.615H8.33906V58.3132C7.94395 58.6557 7.37309 58.9444 6.65952 58.9444C5.39755 58.9444 4.56769 58.0415 4.56769 56.8631Z" fill="white"/>
<path fill-rule="evenodd" clip-rule="evenodd" d="M12.0284 56.8336C12.5358 56.8336 12.8582 56.5672 12.8582 56.1577V56.1472C12.8582 55.7129 12.5477 55.4753 12.0231 55.4753H10.9924V56.8336H12.0284ZM10.2845 54.8296H12.0816C12.5877 54.8296 12.9855 54.9779 13.2445 55.2324C13.4586 55.4516 13.5788 55.7534 13.5788 56.1051V56.117C13.5788 56.781 13.1811 57.1826 12.6168 57.344L13.707 58.8755H12.8705L11.8795 57.4634H10.9928V58.8755H10.2845V54.8296Z" fill="white"/>
<path fill-rule="evenodd" clip-rule="evenodd" d="M18.4761 56.8631V56.8526C18.4761 56.0665 17.9039 55.413 17.1057 55.413C16.3023 55.413 15.746 56.0547 15.746 56.8395V56.8526C15.746 57.6387 16.3155 58.2909 17.1176 58.2909C17.9171 58.2909 18.4761 57.6505 18.4761 56.8631ZM15.0015 56.8631V56.8526C15.0015 55.7135 15.8776 54.7581 17.1171 54.7581C18.3553 54.7581 19.2182 55.7016 19.2182 56.8394V56.8526C19.2182 57.989 18.3421 58.9444 17.1053 58.9444C15.8644 58.9444 15.0015 58.0022 15.0015 56.8631Z" fill="white"/>
<path fill-rule="evenodd" clip-rule="evenodd" d="M20.747 57.1579V54.8299H21.4553V57.1304C21.4553 57.8823 21.8412 58.2852 22.4754 58.2852C23.1031 58.2852 23.489 57.9033 23.489 57.1579V54.8299H24.1973V57.1251C24.1973 58.3325 23.5181 58.9388 22.4636 58.9388C21.4157 58.9388 20.747 58.3325 20.747 57.1579Z" fill="white"/>
<path fill-rule="evenodd" clip-rule="evenodd" d="M27.4531 56.9322C27.9883 56.9322 28.3226 56.6317 28.3226 56.2091V56.1973C28.3226 55.7235 27.9804 55.4768 27.4531 55.4768H26.6285V56.9322H27.4531ZM25.9206 54.8272H27.5103C28.4499 54.8272 29.0432 55.3666 29.0432 56.1816V56.1934C29.0432 57.1002 28.3164 57.5739 27.4284 57.5739H26.6289V58.8745H25.9206V54.8272Z" fill="white"/>
<path fill-rule="evenodd" clip-rule="evenodd" d="M30.427 54.8278H33.4174V55.463H31.1353V56.5155H33.1558V57.152H31.1353V58.2399H33.4452V58.8737H30.427V54.8278Z" fill="white"/>
<path fill-rule="evenodd" clip-rule="evenodd" d="M46.9531 21.2058C47.1605 21.4722 47.3772 21.7216 47.6058 21.946C47.8596 21.8357 48.2058 21.7898 48.6683 21.8712C48.0802 21.4381 47.5424 20.883 47.076 20.2111C46.8209 19.8462 46.5963 19.4565 46.3994 19.0457C46.0333 18.2399 45.6144 17.6284 45.1731 17.2163C44.4859 16.5746 43.6178 16.2924 42.6835 17.0063C43.0337 17.3397 43.8437 17.715 44.4608 17.0798C44.8837 17.3239 45.2907 17.8134 45.5312 18.5339C45.6065 18.7596 45.6937 18.984 45.7849 19.2006C45.2048 18.8502 44.5718 18.9079 44.186 19.4027C44.4476 19.5549 44.9987 19.6691 45.2722 19.1979C45.3396 19.2097 45.4836 19.274 45.5167 19.2924C46.0175 19.5575 46.1576 20.03 46.4469 20.4748C46.2355 20.505 46.0333 20.5982 45.8589 20.7688C46.3029 20.6402 46.6346 20.7898 46.9531 21.2058Z" fill="white"/>
<path fill-rule="evenodd" clip-rule="evenodd" d="M45.5488 10.2892C45.6915 10.7695 45.5765 11.1737 45.5038 11.3561C45.3506 11.738 44.9713 12.1343 44.6145 12.3784C44.041 11.8312 43.3195 12.2577 42.9337 12.6199C43.6102 13.1172 44.5643 12.8784 45.2528 12.2314C45.1735 12.5661 45.1074 12.9086 45.0585 13.255C44.8603 13.1435 44.6291 13.1041 44.3714 13.1711C44.7572 13.259 45.007 13.5293 44.9792 13.9466C44.9753 13.9965 44.9594 14.2367 44.9568 14.2957C44.7625 14.0989 44.452 13.8731 44.0595 13.759C43.6829 13.6277 43.1755 13.654 42.7354 13.8718C43.0328 14.4401 43.9247 14.5018 44.4559 14.1619C44.6819 14.3495 44.9436 14.6724 44.9436 15.1592C44.9436 15.7262 44.6885 16.1264 44.0542 16.2524C44.4454 16.3495 44.7612 16.2734 44.9991 16.0805C45.0255 16.3298 45.0598 16.5779 45.1008 16.822C45.3572 17.0214 45.6122 17.2878 45.8527 17.6212C45.5712 16.6605 45.4206 15.6317 45.4206 14.5752C45.4206 13.4099 45.6215 12.4939 45.7761 11.8075C45.895 11.28 45.9201 10.8259 45.8553 10.4453C45.7073 9.52932 45.0836 9.14218 44.2802 9.049C44.3317 9.57919 44.6819 10.4046 45.5488 10.2892Z" fill="white"/>
<path fill-rule="evenodd" clip-rule="evenodd" d="M46.0373 10.0663C46.0994 10.2513 46.1337 10.4587 46.143 10.6883C46.2447 10.4311 46.3557 10.1831 46.4773 9.94292C47.4433 8.12533 47.0402 7.15683 45.9051 6.59384C45.691 7.10302 45.6342 8.10302 46.6293 8.44292C46.5909 8.79725 46.4614 9.26182 46.1588 9.82743C46.1165 9.90617 46.0769 9.98491 46.0373 10.0663Z" fill="white"/>
<path fill-rule="evenodd" clip-rule="evenodd" d="M45.8325 9.00511C45.884 8.61929 45.6343 8.11929 45.0766 8.09829C44.9498 8.58648 45.3647 9.0143 45.8325 9.00511Z" fill="white"/>
<path fill-rule="evenodd" clip-rule="evenodd" d="M51.7957 25.8783L50.7769 25.2904C50.7769 25.2904 50.8971 25.5502 50.8971 25.8783C50.8971 26.2077 50.7769 26.4688 50.7769 26.4688L51.7957 25.8783Z" fill="white"/>
<path fill-rule="evenodd" clip-rule="evenodd" d="M51.8781 25.9605L51.2848 26.9723C51.2848 26.9723 51.5464 26.8542 51.8781 26.8542C52.2098 26.8542 52.4727 26.9723 52.4727 26.9723L51.8781 25.9605Z" fill="white"/>
<path fill-rule="evenodd" clip-rule="evenodd" d="M51.9607 25.8783L52.9795 26.4688C52.9795 26.4688 52.8592 26.2077 52.8592 25.8783C52.8592 25.5502 52.9795 25.2904 52.9795 25.2904L51.9607 25.8783Z" fill="white"/>
<path fill-rule="evenodd" clip-rule="evenodd" d="M51.2847 24.7865L51.878 25.7983L52.4713 24.7865C52.4713 24.7865 52.2097 24.9059 51.878 24.9059C51.5463 24.9059 51.2847 24.7865 51.2847 24.7865Z" fill="white"/>
<path fill-rule="evenodd" clip-rule="evenodd" d="M47.2082 21.9811C47.0205 21.8459 46.8421 21.7527 46.6598 21.7173C46.6241 21.2606 46.1167 21.0559 45.2815 21.1608C45.3714 21.4771 45.6594 21.7147 46.0321 21.8406C45.748 22.0126 45.448 22.359 45.119 22.9377C45.9066 23.1425 46.7536 22.7265 47.2082 21.9811Z" fill="white"/>
<path fill-rule="evenodd" clip-rule="evenodd" d="M45.5859 20.064C44.9662 19.9314 44.3372 20.1532 44.0676 20.6388C44.7534 20.9091 45.5225 20.6322 45.5859 20.064Z" fill="white"/>
<path fill-rule="evenodd" clip-rule="evenodd" d="M44.6334 18.4516C44.7801 18.0264 44.4312 17.7731 43.7309 17.7758C43.7507 17.907 43.8155 18.0238 43.9132 18.1248C43.6648 18.1747 43.3675 18.365 42.9882 18.7469C43.4983 19.0277 44.1683 18.8899 44.6334 18.4516Z" fill="white"/>
<path fill-rule="evenodd" clip-rule="evenodd" d="M44.529 10.7583C44.463 10.631 44.389 10.5326 44.2965 10.463C44.4128 10.1927 44.1868 9.94331 43.6833 9.7819C43.641 9.98662 43.7322 10.1979 43.908 10.3672C43.6952 10.3895 43.423 10.5063 43.0662 10.7491C43.4494 11.0732 44.0507 11.0601 44.529 10.7583Z" fill="white"/>
<path fill-rule="evenodd" clip-rule="evenodd" d="M48.905 24.6942C48.5601 24.3543 47.9932 24.4567 47.7646 24.8202C48.0593 25.0499 48.6024 25.1076 48.905 24.6942Z" fill="white"/>
<path fill-rule="evenodd" clip-rule="evenodd" d="M44.837 11.4606C44.5278 11.1339 43.9953 11.2113 43.7719 11.5407C44.0389 11.7638 44.545 11.836 44.837 11.4606Z" fill="white"/>
<path fill-rule="evenodd" clip-rule="evenodd" d="M43.4438 15.8514C43.7464 16.0049 44.2379 15.9616 44.4177 15.5495C44.0503 15.3094 43.5733 15.4957 43.4438 15.8514Z" fill="white"/>
<path fill-rule="evenodd" clip-rule="evenodd" d="M44.2295 21.9594C44.5136 22.2048 45.0501 22.2862 45.3672 21.8885C45.0408 21.5368 44.474 21.6116 44.2295 21.9594Z" fill="white"/>
<path fill-rule="evenodd" clip-rule="evenodd" d="M47.4354 23.355C47.0138 23.1122 46.4958 23.3498 46.3743 23.7513C46.7218 23.9023 47.2596 23.8248 47.4354 23.355Z" fill="white"/>
<path fill-rule="evenodd" clip-rule="evenodd" d="M44.2891 19.8832C44.0169 19.5919 43.5464 19.6628 43.3456 19.9528C43.5821 20.1536 44.0301 20.2153 44.2891 19.8832Z" fill="white"/>
<path fill-rule="evenodd" clip-rule="evenodd" d="M43.9317 15.0144C43.5326 14.5223 42.7821 14.5709 42.4345 15.0052C42.7847 15.3504 43.4837 15.5065 43.9317 15.0144Z" fill="white"/>
<path fill-rule="evenodd" clip-rule="evenodd" d="M52.7121 23.8137C52.7702 23.7087 52.7372 23.5972 52.646 23.521C52.5746 23.4607 52.4253 23.3163 52.0923 23.042C52.0368 22.9948 51.9602 22.9462 51.8782 22.9462C51.7976 22.9462 51.721 22.9948 51.6655 23.042C51.3325 23.3163 51.1832 23.4607 51.1105 23.521C51.0206 23.5972 50.9849 23.7087 51.0444 23.8137C51.1025 23.9174 51.2268 23.9502 51.3206 23.8872C51.2109 24.0565 51.2889 24.2048 51.3761 24.2586C51.4739 24.3189 51.5981 24.2809 51.6589 24.1759C51.6298 24.3688 51.7593 24.4817 51.8782 24.4817C51.9972 24.4817 52.1293 24.3688 52.0989 24.1759C52.1584 24.2809 52.2826 24.3189 52.3817 24.2586C52.4663 24.2048 52.5456 24.0565 52.4359 23.8872C52.531 23.9502 52.6539 23.9174 52.7121 23.8137Z" fill="white"/>
<path fill-rule="evenodd" clip-rule="evenodd" d="M49.7541 22.504C49.1753 22.2494 48.1697 21.9108 47.5288 22.2849C47.2883 22.4253 47.0834 22.6707 47.0279 22.9476C47.4614 22.4738 48.5502 22.315 48.8581 23.1877C48.944 23.4318 48.9493 23.8098 48.685 23.9528C48.7881 23.3295 48.3784 22.9476 47.834 22.9332C47.764 23.2206 47.8367 23.5355 48.0177 23.7442C47.8406 23.7258 47.6728 23.7626 47.5393 23.8177C47.5393 23.8177 47.7613 24.172 48.1908 24.2048C48.5053 24.2297 48.7894 24.1156 48.9863 23.8977C49.0326 24.2888 49.1079 24.6379 49.536 24.7652C49.1079 24.966 48.7484 25.3045 48.6546 25.7494C50.4386 25.6589 50.2681 24.9922 50.1029 24.5801C49.0524 24.8505 49.2546 23.8439 49.2598 23.1615C49.351 23.2087 49.6523 23.3465 49.947 23.4581C49.8796 23.6287 49.7765 23.7717 49.6351 23.8977C50.1637 23.8544 50.3817 23.7009 51.2935 22.9187C50.761 22.8597 50.2456 22.7179 49.7541 22.504Z" fill="white"/>
<path fill-rule="evenodd" clip-rule="evenodd" d="M58.5835 17.2162C58.1435 17.6282 57.7246 18.2398 57.3572 19.0482C57.159 19.4563 56.9344 19.8461 56.682 20.2109C56.2142 20.8828 55.6777 21.4379 55.0883 21.871C55.5522 21.7896 55.8984 21.8369 56.1508 21.9458C56.3794 21.7214 56.5974 21.4721 56.8022 21.2057C57.1247 20.7896 57.455 20.64 57.8977 20.77C57.7246 20.598 57.5211 20.5049 57.3097 20.4747C57.5991 20.0298 57.7405 19.5574 58.24 19.2923C58.2743 19.2739 58.417 19.2122 58.4871 19.1965C58.7606 19.6689 59.309 19.5547 59.572 19.4038C59.1861 18.9078 58.5531 18.85 57.9717 19.2004C58.0616 18.9839 58.1488 18.7595 58.2254 18.5337C58.4672 17.8133 58.8756 17.3251 59.2958 17.0797C59.9116 17.7148 60.7243 17.3395 61.0758 17.0062C60.1415 16.2923 59.272 16.5744 58.5835 17.2162Z" fill="white"/>
<path fill-rule="evenodd" clip-rule="evenodd" d="M57.8997 10.4456C57.8363 10.8262 57.8628 11.2803 57.9817 11.8078C58.1376 12.4942 58.3358 13.4102 58.3358 14.5742C58.3358 15.632 58.1865 16.6608 57.9037 17.6215C58.1455 17.2881 58.3979 17.0217 58.6569 16.8196C58.6979 16.5769 58.7336 16.3288 58.756 16.0795C58.9952 16.2724 59.311 16.3498 59.7035 16.2527C59.0692 16.1267 58.8129 15.7251 58.8129 15.1595C58.8129 14.6727 59.0771 14.3498 59.3031 14.1622C59.8304 14.502 60.725 14.4391 61.021 13.8721C60.5823 13.6543 60.0748 13.628 59.6956 13.758C59.3031 13.8734 58.9939 14.1005 58.801 14.296C58.7983 14.237 58.7798 13.9968 58.7772 13.9456C58.7508 13.5296 58.9979 13.2593 59.3837 13.1713C59.1287 13.1031 58.8961 13.1438 58.6979 13.2553C58.6477 12.9076 58.5843 12.5677 58.5036 12.2317C59.1934 12.8787 60.1475 13.1175 60.8241 12.6215C60.4395 12.258 59.7141 11.8314 59.1406 12.3787C58.7838 12.1346 58.4072 11.737 58.2552 11.3564C58.1812 11.174 58.0636 10.7698 58.2063 10.2895C59.0758 10.4049 59.426 9.57948 59.4762 9.0493C58.6728 9.14247 58.0504 9.52961 57.8997 10.4456Z" fill="white"/>
<path fill-rule="evenodd" clip-rule="evenodd" d="M57.2801 9.94204C57.4017 10.1848 57.5127 10.4315 57.6131 10.6874C57.6224 10.4591 57.6581 10.2504 57.7202 10.0654C57.6805 9.98666 57.6382 9.90792 57.5973 9.82787C57.2947 9.26094 57.1652 8.79637 57.1282 8.44204C58.1219 8.10346 58.0651 7.10215 57.8523 6.59428C56.7159 7.15596 56.3115 8.12446 57.2801 9.94204Z" fill="white"/>
<path fill-rule="evenodd" clip-rule="evenodd" d="M57.9255 9.00511C58.3933 9.0143 58.8069 8.58648 58.68 8.09829C58.1237 8.11929 57.8727 8.61929 57.9255 9.00511Z" fill="white"/>
<path fill-rule="evenodd" clip-rule="evenodd" d="M58.4753 21.1622C57.6401 21.0572 57.1327 21.2619 57.0983 21.7173C56.9147 21.754 56.735 21.8459 56.5486 21.9824C57.0045 22.7252 57.8502 23.1412 58.6378 22.9378C58.3088 22.359 58.0088 22.0112 57.7247 21.8393C58.0974 21.7147 58.3854 21.4784 58.4753 21.1622Z" fill="white"/>
<path fill-rule="evenodd" clip-rule="evenodd" d="M58.1722 20.064C58.2343 20.6322 59.0034 20.9091 59.6879 20.6388C59.4209 20.1532 58.7906 19.9314 58.1722 20.064Z" fill="white"/>
<path fill-rule="evenodd" clip-rule="evenodd" d="M59.844 18.1248C59.9405 18.0238 60.0052 17.907 60.025 17.7758C59.3247 17.7731 58.9771 18.0264 59.1225 18.4516C59.5863 18.8899 60.2563 19.0277 60.7677 18.7469C60.3897 18.365 60.0911 18.1747 59.844 18.1248Z" fill="white"/>
<path fill-rule="evenodd" clip-rule="evenodd" d="M60.0725 9.78163C59.569 9.94305 59.3444 10.1937 59.4607 10.4654C59.3682 10.5323 59.2929 10.632 59.2281 10.758C59.7065 11.0625 60.3077 11.073 60.6909 10.7475C60.3328 10.5074 60.0619 10.3892 59.8492 10.3669C60.0236 10.1963 60.1148 9.98636 60.0725 9.78163Z" fill="white"/>
<path fill-rule="evenodd" clip-rule="evenodd" d="M55.9938 24.8198C55.7639 24.4589 55.1957 24.3552 54.8521 24.6938C55.1521 25.1085 55.6952 25.0521 55.9938 24.8198Z" fill="white"/>
<path fill-rule="evenodd" clip-rule="evenodd" d="M58.9203 11.4606C59.2111 11.836 59.7172 11.7638 59.9854 11.5407C59.7608 11.2113 59.2282 11.1339 58.9203 11.4606Z" fill="white"/>
<path fill-rule="evenodd" clip-rule="evenodd" d="M60.3137 15.8514C60.1829 15.4957 59.7058 15.3094 59.3385 15.5495C59.5195 15.9616 60.0098 16.0049 60.3137 15.8514Z" fill="white"/>
<path fill-rule="evenodd" clip-rule="evenodd" d="M59.5266 21.9594C59.2808 21.6116 58.7153 21.5368 58.3902 21.8885C58.706 22.2862 59.2438 22.2048 59.5266 21.9594Z" fill="white"/>
<path fill-rule="evenodd" clip-rule="evenodd" d="M56.3215 23.355C56.4972 23.8248 57.0364 23.9023 57.3839 23.7513C57.261 23.3498 56.7443 23.1122 56.3215 23.355Z" fill="white"/>
<path fill-rule="evenodd" clip-rule="evenodd" d="M60.4123 19.9524C60.2128 19.6611 59.741 19.5941 59.4675 19.8829C59.7252 20.2149 60.1731 20.1519 60.4123 19.9524Z" fill="white"/>
<path fill-rule="evenodd" clip-rule="evenodd" d="M59.8263 15.0144C60.2743 15.5065 60.9707 15.3504 61.3235 15.0052C60.9746 14.5709 60.2241 14.5223 59.8263 15.0144Z" fill="white"/>
<path fill-rule="evenodd" clip-rule="evenodd" d="M56.728 22.9474C56.6751 22.6705 56.4703 22.4277 56.2285 22.2847C55.5876 21.9107 54.582 22.248 54.0019 22.5039C53.5103 22.7178 52.9963 22.8608 52.4611 22.9199C53.3755 23.7007 53.5949 23.8543 54.1208 23.8989C53.9807 23.7716 53.8777 23.6298 53.8103 23.4579C54.1049 23.3464 54.4049 23.2086 54.4974 23.1627C54.5001 23.8451 54.7062 24.8503 53.6543 24.58C53.4892 24.992 53.3187 25.6587 55.104 25.7493C55.0075 25.3044 54.6507 24.9671 54.2212 24.765C54.6507 24.639 54.7221 24.2886 54.771 23.8976C54.9678 24.1154 55.252 24.2309 55.5665 24.2046C55.9946 24.1732 56.2166 23.8175 56.2166 23.8175C56.0845 23.7637 55.9166 23.7243 55.7396 23.744C55.9206 23.5354 55.992 23.2204 55.9232 22.933C55.3788 22.9474 54.9705 23.3293 55.0709 23.9553C54.808 23.8096 54.8132 23.4317 54.8991 23.1889C55.207 22.3175 56.2972 22.4737 56.728 22.9474Z" fill="white"/>
<path fill-rule="evenodd" clip-rule="evenodd" d="M51.878 21.8068C48.9946 21.8068 46.6478 18.5627 46.6478 14.5785C46.6478 10.5876 48.9946 7.34224 51.878 7.34224C54.7614 7.34224 57.1082 10.5876 57.1082 14.5785C57.1082 18.5627 54.7614 21.8068 51.878 21.8068ZM57.6607 14.5785C57.6607 10.2937 55.072 6.81209 51.8781 6.81209C48.6855 6.81209 46.0955 10.2937 46.0955 14.5785C46.0955 18.8606 48.6855 22.3331 51.8781 22.3331C55.072 22.3331 57.6607 18.8606 57.6607 14.5785Z" fill="white"/>
<path fill-rule="evenodd" clip-rule="evenodd" d="M51.8783 7.83882C51.3907 7.83882 50.9137 7.94906 50.4578 8.15772H53.2988C52.8416 7.94906 52.3659 7.83882 51.8783 7.83882Z" fill="white"/>
<path fill-rule="evenodd" clip-rule="evenodd" d="M54.0552 8.61305H49.7024C49.5716 8.71148 49.4473 8.81647 49.3231 8.93195H54.4331C54.3089 8.81647 54.1847 8.71148 54.0552 8.61305Z" fill="white"/>
<path fill-rule="evenodd" clip-rule="evenodd" d="M54.8618 9.38576H48.8929C48.8083 9.48812 48.7224 9.59442 48.6432 9.70597H55.1129C55.0323 9.59442 54.9464 9.48812 54.8618 9.38576Z" fill="white"/>
<path fill-rule="evenodd" clip-rule="evenodd" d="M47.1744 14.8004C47.177 14.908 47.181 15.0143 47.1863 15.1206H56.5698C56.5764 15.0143 56.5803 14.908 56.583 14.8004H47.1744Z" fill="white"/>
<path fill-rule="evenodd" clip-rule="evenodd" d="M49.6984 20.5355H54.0578C54.186 20.437 54.3129 20.3307 54.4371 20.2152H49.3205C49.4434 20.3307 49.5676 20.437 49.6984 20.5355Z" fill="white"/>
<path fill-rule="evenodd" clip-rule="evenodd" d="M51.8783 21.3083C52.3672 21.3083 52.8456 21.1981 53.3015 20.9894H50.4578C50.9137 21.1981 51.3907 21.3083 51.8783 21.3083Z" fill="white"/>
<path fill-rule="evenodd" clip-rule="evenodd" d="M49.2033 10.1598H48.3391C48.2743 10.2648 48.2122 10.3711 48.1528 10.4801H48.9707C49.0394 10.3672 49.1174 10.2596 49.2033 10.1598Z" fill="white"/>
<path fill-rule="evenodd" clip-rule="evenodd" d="M54.7859 10.4789H55.6039C55.5457 10.37 55.4823 10.2637 55.4189 10.1587H54.5533C54.6419 10.2584 54.7185 10.366 54.7859 10.4789Z" fill="white"/>
<path fill-rule="evenodd" clip-rule="evenodd" d="M48.7567 10.9326H47.9268C47.8792 11.0376 47.8343 11.1439 47.7907 11.2528H48.6681C48.688 11.1492 48.7183 11.0415 48.7567 10.9326Z" fill="white"/>
<path fill-rule="evenodd" clip-rule="evenodd" d="M55.0889 11.253H55.9663C55.924 11.144 55.8778 11.0378 55.8302 10.9328H55.0017C55.04 11.043 55.0664 11.1493 55.0889 11.253Z" fill="white"/>
<path fill-rule="evenodd" clip-rule="evenodd" d="M48.6618 11.8629C48.6499 11.8091 48.6407 11.758 48.6341 11.7068H47.6219C47.5875 11.8118 47.5545 11.9181 47.5227 12.0257H48.1253C48.2826 11.9286 48.4662 11.8695 48.6618 11.8629Z" fill="white"/>
<path fill-rule="evenodd" clip-rule="evenodd" d="M55.095 11.8629C55.288 11.8695 55.473 11.9286 55.6315 12.0257H56.2328C56.2024 11.9181 56.168 11.8118 56.1337 11.7068H55.1202C55.1149 11.758 55.1069 11.8091 55.095 11.8629Z" fill="white"/>
<path fill-rule="evenodd" clip-rule="evenodd" d="M47.7088 12.4807H47.4062C47.3811 12.587 47.3586 12.6933 47.3388 12.7996H47.6031C47.6242 12.6868 47.6586 12.5791 47.7088 12.4807Z" fill="white"/>
<path fill-rule="evenodd" clip-rule="evenodd" d="M56.1536 12.7999H56.4179C56.398 12.6923 56.3756 12.586 56.3491 12.481H56.0479C56.0981 12.5794 56.1337 12.687 56.1536 12.7999Z" fill="white"/>
<path fill-rule="evenodd" clip-rule="evenodd" d="M47.6948 13.4855C47.6604 13.4081 47.6326 13.3306 47.6128 13.2532H47.2626C47.2468 13.3595 47.2336 13.4658 47.223 13.5721H47.7503C47.7278 13.5472 47.7093 13.517 47.6948 13.4855Z" fill="white"/>
<path fill-rule="evenodd" clip-rule="evenodd" d="M56.0618 13.4855C56.0473 13.517 56.0288 13.5472 56.0063 13.5721H56.5322C56.523 13.4658 56.5098 13.3595 56.4952 13.2532H56.1424C56.1239 13.3306 56.0975 13.4081 56.0618 13.4855Z" fill="white"/>
<path fill-rule="evenodd" clip-rule="evenodd" d="M53.6254 10.1598H50.1289C50.2174 10.2596 50.2941 10.3672 50.3628 10.4801H53.3928C53.4616 10.3672 53.5395 10.2596 53.6254 10.1598Z" fill="white"/>
<path fill-rule="evenodd" clip-rule="evenodd" d="M53.1789 10.9326H50.577C50.618 11.0415 50.6457 11.1492 50.6668 11.2528H53.0904C53.1115 11.1492 53.1406 11.0415 53.1789 10.9326Z" fill="white"/>
<path fill-rule="evenodd" clip-rule="evenodd" d="M53.0852 11.8629C53.0733 11.8091 53.064 11.758 53.0574 11.7068H50.696C50.6907 11.758 50.6841 11.8091 50.6722 11.8629C50.8665 11.8695 51.0515 11.9286 51.2087 12.0257H52.5487C52.7059 11.9286 52.8896 11.8695 53.0852 11.8629Z" fill="white"/>
<path fill-rule="evenodd" clip-rule="evenodd" d="M52.0254 12.7999C52.0466 12.687 52.0823 12.5794 52.1325 12.481H51.625C51.6739 12.5794 51.7123 12.687 51.7308 12.7999H52.0254Z" fill="white"/>
<path fill-rule="evenodd" clip-rule="evenodd" d="M52.1737 13.5727C52.1222 13.5136 52.0707 13.3955 52.0363 13.2538H51.7192C51.6861 13.3955 51.6346 13.5136 51.5844 13.5727H52.1737Z" fill="white"/>
<path fill-rule="evenodd" clip-rule="evenodd" d="M51.416 15.5745H47.2218C47.2324 15.6821 47.2469 15.7884 47.2588 15.8947H51.1834C51.2522 15.7819 51.3301 15.6743 51.416 15.5745Z" fill="white"/>
<path fill-rule="evenodd" clip-rule="evenodd" d="M52.5737 15.8936H56.4957C56.5103 15.7873 56.5235 15.681 56.5354 15.5733H52.3398C52.4283 15.6731 52.505 15.7807 52.5737 15.8936Z" fill="white"/>
<path fill-rule="evenodd" clip-rule="evenodd" d="M50.9684 16.3485H47.3371C47.3582 16.4561 47.3793 16.5624 47.4044 16.6674H50.8798C50.8996 16.5637 50.93 16.4575 50.9684 16.3485Z" fill="white"/>
<path fill-rule="evenodd" clip-rule="evenodd" d="M52.8769 16.6677H56.3522C56.3747 16.5614 56.3985 16.4551 56.4196 16.3488H52.7883C52.828 16.4577 52.8544 16.564 52.8769 16.6677Z" fill="white"/>
<path fill-rule="evenodd" clip-rule="evenodd" d="M50.8731 17.2802C50.8612 17.2264 50.8533 17.1726 50.8454 17.1214H47.522C47.5524 17.2291 47.5867 17.3354 47.6211 17.4403H50.3406C50.4978 17.3445 50.6802 17.2855 50.8731 17.2802Z" fill="white"/>
<path fill-rule="evenodd" clip-rule="evenodd" d="M52.8833 17.2802C53.0762 17.2855 53.2586 17.3445 53.4158 17.4403H56.1353C56.1697 17.3354 56.204 17.2291 56.2344 17.1214H52.9097C52.9044 17.1726 52.8952 17.2264 52.8833 17.2802Z" fill="white"/>
<path fill-rule="evenodd" clip-rule="evenodd" d="M49.9218 17.8954H47.789C47.8312 18.0043 47.8775 18.1106 47.9251 18.2143H49.8147C49.8359 18.1014 49.8715 17.9938 49.9218 17.8954Z" fill="white"/>
<path fill-rule="evenodd" clip-rule="evenodd" d="M53.9414 18.2146H55.831C55.8786 18.1096 55.9248 18.0033 55.9684 17.8957H53.8356C53.8859 17.9941 53.9215 18.1017 53.9414 18.2146Z" fill="white"/>
<path fill-rule="evenodd" clip-rule="evenodd" d="M50.5464 18.9885H51.1794C51.1464 18.8639 51.0393 18.7274 50.8847 18.7274C50.7275 18.7274 50.6178 18.852 50.5464 18.9885Z" fill="white"/>
<path fill-rule="evenodd" clip-rule="evenodd" d="M52.5775 18.9885H53.2105C53.1392 18.852 53.0295 18.7274 52.8735 18.7274C52.715 18.7274 52.6079 18.8639 52.5775 18.9885Z" fill="white"/>
<path fill-rule="evenodd" clip-rule="evenodd" d="M48.3348 13.5714H48.9677C48.936 13.4467 48.8277 13.3102 48.6731 13.3102C48.5171 13.3102 48.4075 13.4349 48.3348 13.5714Z" fill="white"/>
<path fill-rule="evenodd" clip-rule="evenodd" d="M50.6612 13.3099C50.5066 13.3099 50.3995 13.4464 50.3665 13.5711H50.9995C50.9268 13.4359 50.8184 13.3099 50.6612 13.3099Z" fill="white"/>
<path fill-rule="evenodd" clip-rule="evenodd" d="M55.0839 13.3099C54.9293 13.3099 54.8222 13.4464 54.7892 13.5711H55.4222C55.3495 13.4359 55.2411 13.3099 55.0839 13.3099Z" fill="white"/>
<path fill-rule="evenodd" clip-rule="evenodd" d="M53.0951 13.3099C52.9392 13.3099 52.8295 13.4359 52.7568 13.5711H53.3911C53.3581 13.4464 53.2497 13.3099 53.0951 13.3099Z" fill="white"/>
<path fill-rule="evenodd" clip-rule="evenodd" d="M49.825 18.6682H48.1507C48.2089 18.7772 48.2723 18.8835 48.3357 18.9884H49.9611C49.899 18.9228 49.8448 18.7496 49.825 18.6682Z" fill="white"/>
<path fill-rule="evenodd" clip-rule="evenodd" d="M53.797 18.9886H55.4211C55.4832 18.8836 55.5453 18.7773 55.6061 18.6684H53.9318C53.9133 18.7484 53.8578 18.9243 53.797 18.9886Z" fill="white"/>
<path fill-rule="evenodd" clip-rule="evenodd" d="M49.6679 10.5724C50.1225 11.2784 50.0736 11.7968 49.6679 12.5317V10.5724ZM50.6615 12.9293C50.9364 12.9293 51.1677 13.0947 51.2919 13.3283C51.3368 13.2285 51.3672 13.1196 51.3672 13.0041C51.3672 12.5842 51.0408 12.2416 50.6351 12.2416C50.5056 12.2416 50.3827 12.281 50.277 12.3466L50.0206 12.7167L49.9242 12.6458C49.9242 12.6458 50.3219 11.991 50.3219 11.5855C50.3219 11.176 50.0629 10.5553 49.6678 10.2364C49.2714 10.5553 49.0124 11.176 49.0124 11.5855C49.0124 11.991 49.4088 12.6458 49.4088 12.6458L49.3124 12.7167L49.0573 12.3466C48.9516 12.281 48.8274 12.2416 48.6979 12.2416C48.2935 12.2416 47.9671 12.5842 47.9671 13.0041C47.9671 13.1196 47.9962 13.2285 48.0438 13.3283C48.1654 13.0947 48.3979 12.9293 48.6728 12.9293C49.089 12.9293 49.3626 13.3125 49.3626 13.6458C49.3626 13.7863 49.3401 13.9122 49.3071 14.0251V14.0277C49.2661 14.1537 49.2146 14.2613 49.1644 14.3466H50.17C50.1184 14.2613 50.0669 14.1537 50.0259 14.0277V14.0251C49.9942 13.9122 49.9704 13.7863 49.9704 13.6458V13.6445C49.9704 13.3125 50.2453 12.9293 50.6615 12.9293Z" fill="white"/>
<path fill-rule="evenodd" clip-rule="evenodd" d="M54.0899 10.5724C54.5444 11.2784 54.4969 11.7968 54.0899 12.5317V10.5724ZM55.0842 12.9293C55.3591 12.9293 55.5903 13.0947 55.7146 13.3283C55.7608 13.2285 55.7899 13.1196 55.7899 13.0041C55.7899 12.5842 55.4635 12.2416 55.0591 12.2416C54.9283 12.2416 54.8054 12.281 54.6997 12.3466L54.4433 12.7167L54.3482 12.6458C54.3482 12.6458 54.746 11.991 54.746 11.5855C54.746 11.176 54.4869 10.5553 54.0905 10.2364C53.6941 10.5553 53.4351 11.176 53.4351 11.5855C53.4351 11.991 53.8315 12.6458 53.8315 12.6458L53.7351 12.7167L53.4813 12.3466C53.3756 12.281 53.2514 12.2416 53.1206 12.2416C52.7175 12.2416 52.3912 12.5842 52.3912 13.0041C52.3912 13.1196 52.4202 13.2285 52.4665 13.3283C52.5907 13.0947 52.8206 12.9293 53.0955 12.9293C53.5117 12.9293 53.7853 13.3125 53.7866 13.6445V13.6458C53.7866 13.7863 53.7628 13.9122 53.7311 14.0251L53.7298 14.0277C53.6914 14.1537 53.6386 14.2613 53.5871 14.3466H54.5927C54.5411 14.2613 54.4896 14.1537 54.45 14.0277L54.4486 14.0251C54.4169 13.9122 54.3931 13.7863 54.3931 13.6458C54.3931 13.3125 54.668 12.9293 55.0842 12.9293Z" fill="white"/>
<path fill-rule="evenodd" clip-rule="evenodd" d="M51.8781 17.9493V15.99C52.3327 16.6961 52.2851 17.2131 51.8781 17.9493ZM51.8784 15.6525C51.482 15.974 51.223 16.5935 51.223 17.0029C51.223 17.4071 51.6208 18.0633 51.6208 18.0633L51.5243 18.1341L51.2693 17.7614C51.1635 17.6985 51.0406 17.6591 50.9085 17.6591C50.5055 17.6591 50.1791 18.0016 50.1791 18.4202C50.1791 18.5383 50.2081 18.6473 50.2544 18.7444C50.3786 18.5121 50.6099 18.3467 50.8847 18.3467C51.2996 18.3467 51.5745 18.7299 51.5745 19.0633C51.5745 19.3625 51.4741 19.6 51.3776 19.7614H52.3793C52.2828 19.6 52.181 19.3625 52.181 19.0633C52.181 19.062 52.1824 19.062 52.1824 19.0607C52.1824 18.7286 52.4572 18.3467 52.8735 18.3467C53.1483 18.3467 53.3783 18.5121 53.5025 18.7444C53.5487 18.6473 53.5778 18.5383 53.5778 18.4202C53.5778 18.0016 53.2514 17.6591 52.8484 17.6591C52.7175 17.6591 52.5933 17.6985 52.4876 17.7614L52.2326 18.1341L52.1374 18.0633C52.1374 18.0633 52.5339 17.4071 52.5339 17.0029C52.5339 16.5935 52.2749 15.974 51.8784 15.6525Z" fill="white"/>
<path fill-rule="evenodd" clip-rule="evenodd" d="M51.1088 19.4423H48.6404C48.7223 19.5539 48.8069 19.6602 48.8928 19.7625H50.9582C51.011 19.6772 51.0665 19.5709 51.1088 19.4423Z" fill="white"/>
<path fill-rule="evenodd" clip-rule="evenodd" d="M52.7997 19.7615H54.8638C54.9497 19.6591 55.0329 19.5542 55.1162 19.4413H52.6491C52.69 19.5699 52.7455 19.6788 52.7997 19.7615Z" fill="white"/>
<path fill-rule="evenodd" clip-rule="evenodd" d="M52.3815 1.51292C52.3815 1.23733 52.1555 1.01292 51.878 1.01292C51.6005 1.01292 51.3746 1.23733 51.3746 1.51292C51.3746 1.78851 51.6005 2.01292 51.878 2.01292C52.1555 2.01292 52.3815 1.78851 52.3815 1.51292Z" fill="white"/>
<path fill-rule="evenodd" clip-rule="evenodd" d="M52.3379 5.90628L52.474 6.09L52.696 5.72124L52.4793 5.3656H51.2768L51.0614 5.72124L51.2847 6.09L51.4195 5.90628H52.3379Z" fill="white"/>
<path fill-rule="evenodd" clip-rule="evenodd" d="M50.3684 6.09858L50.5627 6.22062L50.6261 5.79805L50.2865 5.54739L49.1725 5.9739L49.113 6.38073L49.4606 6.64319L49.5174 6.42403L50.3684 6.09858Z" fill="white"/>
<path fill-rule="evenodd" clip-rule="evenodd" d="M54.2371 6.42403L54.2953 6.64319L54.6455 6.38073L54.5847 5.97522L53.4681 5.54739L53.1311 5.79805L53.1932 6.22062L53.3875 6.09858L54.2371 6.42403Z" fill="white"/>
<path fill-rule="evenodd" clip-rule="evenodd" d="M48.8956 14.0275H47.187C47.1804 14.1338 47.1764 14.2401 47.1738 14.3477H48.745C48.7992 14.2624 48.8547 14.1561 48.8956 14.0275Z" fill="white"/>
<path fill-rule="evenodd" clip-rule="evenodd" d="M55.0117 14.3467H56.5815C56.5802 14.2391 56.5762 14.1328 56.5709 14.0265H54.861C54.9033 14.1551 54.9588 14.264 55.0117 14.3467Z" fill="white"/>
<path fill-rule="evenodd" clip-rule="evenodd" d="M53.1676 14.3467C53.2218 14.264 53.2773 14.1551 53.3196 14.0265H50.4389C50.4812 14.1551 50.5354 14.264 50.5895 14.3467H53.1676Z" fill="white"/>
<path fill-rule="evenodd" clip-rule="evenodd" d="M55.4177 3.75716L54.0302 3.18235L53.7501 3.74272C53.6391 3.94613 53.4356 3.97632 53.2823 3.91726C53.133 3.85952 52.9995 3.70073 53.055 3.48813L53.2083 2.84115L51.8776 2.28865L50.5456 2.84115L50.7015 3.48813C50.757 3.70073 50.6222 3.85952 50.4742 3.91726C50.3223 3.97632 50.1175 3.94613 50.0051 3.74272L49.7237 3.18235L48.3401 3.75716L48.4894 4.32277C48.5436 4.53406 48.4088 4.69285 48.2608 4.75059C48.1089 4.81096 47.9027 4.77947 47.7917 4.57737L47.5169 4.09705L46.6526 4.45269C46.4861 4.12855 46.2139 4.21647 46.1043 4.26897L47.3887 6.7191C47.7349 7.46975 47.5856 8.01306 47.5671 8.18366C47.9701 7.5603 48.8925 6.96844 49.0471 6.87264L48.3295 6.34639C48.3243 6.43957 48.3428 6.57868 48.3665 6.69023L48.0798 6.91595L47.682 6.23353C48.8674 5.41989 50.2588 4.93301 51.6648 4.90807C51.6027 4.74141 51.5142 4.55637 51.168 4.58918C49.9021 4.70335 48.6639 5.14692 47.5089 5.92907L46.8799 4.84377C46.8799 4.84377 47.3821 4.64954 47.3834 4.64954C47.6622 5.09968 48.0045 5.15086 48.3917 4.99469C48.7709 4.84508 48.911 4.54587 48.8238 4.08393L49.5968 3.78078C49.9245 4.30571 50.2496 4.33065 50.6196 4.18367C50.9975 4.03275 51.1204 3.67579 51.0358 3.2191C51.0358 3.2191 51.2539 3.13117 51.4851 3.038C51.6107 3.88052 51.8776 4.35296 51.8776 4.35296C51.8776 4.35296 52.1432 3.88052 52.2687 3.038C52.5026 3.13117 52.722 3.2191 52.722 3.2191C52.6374 3.67579 52.759 4.03275 53.1343 4.18367C53.5069 4.33065 53.832 4.30571 54.1597 3.78078L54.9328 4.08393C54.8429 4.54587 54.9869 4.84508 55.3662 4.99469C55.7534 5.15086 56.0943 5.09968 56.3744 4.64954L56.8766 4.84377L56.2476 5.92907C55.0926 5.14692 53.8531 4.70335 52.5859 4.58918C52.2423 4.55637 52.1525 4.74141 52.089 4.90807C53.499 4.93301 54.8891 5.41989 56.0718 6.23353L55.6767 6.91595L55.39 6.69023C55.4151 6.57868 55.4336 6.43957 55.427 6.34639L54.7107 6.87264C54.8654 6.96844 55.7851 7.5603 56.1908 8.18366C56.1696 8.01306 56.0229 7.46975 56.3691 6.7191L57.6496 4.26897C57.5413 4.21647 57.2677 4.12855 57.1012 4.45269L56.237 4.09705L55.9635 4.57737C55.8525 4.77947 55.649 4.81096 55.4957 4.75059C55.3464 4.69285 55.2129 4.53406 55.2684 4.32277L55.4177 3.75716Z" fill="white"/>
<path fill-rule="evenodd" clip-rule="evenodd" d="M35.231 13.9943C35.2297 14.1636 35.3671 14.3027 35.5349 14.304C35.7054 14.3053 35.8468 14.1689 35.8481 13.9996C35.8507 13.8303 35.712 13.6938 35.5402 13.6925C35.3697 13.6912 35.2323 13.825 35.231 13.9943Z" fill="white"/>
<path fill-rule="evenodd" clip-rule="evenodd" d="M34.787 15.8436L34.7725 15.845L34.8967 16.7124L34.898 16.7255L35.0328 16.7072L35.0341 16.6967C35.0447 16.6192 35.05 16.5103 35.05 16.3896L35.8257 16.2807L35.8917 16.7373C35.9076 16.8502 35.967 16.8804 36.008 16.8961L36.119 16.8804L36.0278 16.2531L36.6938 16.1573L36.7797 16.7597C36.6714 16.8003 36.5921 16.8384 36.4996 16.8975L36.493 16.9027L36.5088 17.0103L36.5181 17.0129C36.5947 17.03 36.7533 17.0497 36.8603 17.0352C36.9224 17.0261 36.9674 17.0156 37.0004 16.9959L37.0083 16.9919L36.8048 15.5694L36.7929 15.5707C36.6661 15.5891 36.6489 15.6468 36.641 15.862L35.0103 16.0891C34.9416 15.8778 34.9059 15.8266 34.787 15.8436Z" fill="white"/>
<path fill-rule="evenodd" clip-rule="evenodd" d="M35.5553 18.0414C35.6703 17.8839 35.8606 17.7671 36.1103 17.7002C36.3601 17.6332 36.5887 17.6385 36.7671 17.7133C36.7909 17.7225 36.8133 17.7356 36.8345 17.7461C36.9732 17.8249 37.0697 17.9535 37.1133 18.1175C37.1648 18.3039 37.1318 18.485 37.0208 18.6372C36.9072 18.7947 36.7182 18.9128 36.4698 18.9784C36.2213 19.0466 35.9941 19.0414 35.8117 18.9653C35.6346 18.8905 35.5131 18.7514 35.4628 18.5624C35.4113 18.3747 35.443 18.1936 35.5553 18.0414ZM35.7254 19.2055C35.7294 19.2081 35.7347 19.2107 35.7386 19.2133C35.9805 19.3446 36.2791 19.3761 36.5738 19.2947C36.883 19.2147 37.1129 19.0519 37.2385 18.8236C37.3614 18.6097 37.3865 18.3511 37.3138 18.0821C37.2398 17.817 37.0759 17.6018 36.85 17.4719C36.8473 17.4692 36.842 17.4679 36.8354 17.4653C36.5962 17.3328 36.3002 17.3052 36.0056 17.3853C35.695 17.4679 35.4664 17.6294 35.3343 17.8525C35.2101 18.0664 35.1836 18.3196 35.2537 18.5887C35.3277 18.8551 35.4942 19.0729 35.7254 19.2055Z" fill="white"/>
<path fill-rule="evenodd" clip-rule="evenodd" d="M37.7977 20.0345L37.8029 20.0423L37.9285 19.9938L37.6153 19.1867L37.6034 19.1906C37.4898 19.2366 37.4845 19.3009 37.5281 19.5213L35.9926 20.1079C35.8763 19.915 35.8274 19.8704 35.7138 19.9137L35.7005 19.919L36.0111 20.7234L36.1379 20.6775V20.6657C36.134 20.5896 36.1168 20.4754 36.0983 20.3901L37.6404 19.8035C37.684 19.877 37.7474 19.9741 37.7977 20.0345Z" fill="white"/>
<path fill-rule="evenodd" clip-rule="evenodd" d="M38.5798 21.7095C38.6221 21.7672 38.6829 21.8709 38.7146 21.9234C38.7859 22.0441 38.8137 22.1544 38.7939 22.2502C38.7741 22.3447 38.7106 22.4273 38.6023 22.4903C38.519 22.5389 38.3908 22.5861 38.26 22.5402C38.1133 22.4916 37.9931 22.3447 37.8913 22.1084L38.5798 21.7095ZM38.3104 22.8093C38.4742 22.8618 38.6434 22.8447 38.7861 22.762C38.938 22.6715 39.0279 22.5507 39.0477 22.3998C39.0689 22.2555 39.0252 22.0875 38.9156 21.9011C38.8918 21.8631 38.8416 21.7817 38.7887 21.6964C38.7279 21.5993 38.6645 21.4983 38.6354 21.4458L38.4451 21.1282L38.4359 21.1347C38.3275 21.1964 38.3328 21.2568 38.4068 21.4602L36.9863 22.2857C36.8409 22.1177 36.7894 22.0836 36.6824 22.1439L36.6731 22.1505L37.1184 22.9064L37.1237 22.9169L37.24 22.85L37.2387 22.8395C37.2268 22.7791 37.1924 22.6859 37.1369 22.5494L37.725 22.2069C37.9086 22.6098 38.1452 22.7568 38.3104 22.8093Z" fill="white"/>
<path fill-rule="evenodd" clip-rule="evenodd" d="M38.6432 25.0248C38.9168 25.1784 39.2484 25.139 39.551 24.9015L40.3664 24.2663C40.5342 24.4159 40.5897 24.4422 40.6848 24.3687L40.6954 24.3595L40.1827 23.7151L40.0783 23.7952L40.0809 23.8044C40.1021 23.8792 40.1668 23.9881 40.2184 24.0747L39.4215 24.7007C39.0859 24.9645 38.8031 24.9579 38.5838 24.6797C38.3406 24.3752 38.3895 24.1075 38.7344 23.8372L39.5325 23.2125C39.6065 23.282 39.699 23.3673 39.7651 23.408L39.7717 23.412L39.8788 23.3306L39.3277 22.6377L39.3172 22.6469C39.2207 22.7204 39.2352 22.782 39.3409 22.975L38.5296 23.6128C38.2944 23.7965 38.1728 23.9868 38.1543 24.1928C38.1384 24.3857 38.2151 24.5852 38.3882 24.8044C38.4635 24.8975 38.5507 24.9723 38.6432 25.0248Z" fill="white"/>
<path fill-rule="evenodd" clip-rule="evenodd" d="M40.0175 26.1538L40.4972 25.6525L40.7469 25.8874C40.9438 26.0738 40.9636 26.2706 40.7998 26.4439C40.624 26.6236 40.406 26.625 40.2117 26.4452L40.0201 26.2601C39.9805 26.2234 39.9791 26.1945 40.0175 26.1538ZM41.1126 25.0109L41.3148 25.2038C41.4813 25.3613 41.4906 25.5293 41.3373 25.6894C41.221 25.8101 41.0347 25.8823 40.855 25.7248L40.6303 25.5148L41.1126 25.0109ZM40.3108 26.7563C40.5751 26.9059 40.8394 26.8731 41.0482 26.6552C41.2292 26.4663 41.2398 26.2353 41.0773 26.0017C41.2715 26.0673 41.4671 26.0188 41.6072 25.8731C41.7578 25.7156 41.8622 25.4571 41.5054 25.1172L40.8315 24.482L40.8209 24.4899C40.735 24.5831 40.7575 24.6382 40.8856 24.8114L39.7519 25.9925C39.5721 25.8744 39.514 25.8547 39.4281 25.9479L39.4175 25.9584L40.0941 26.5949C40.1655 26.6644 40.2381 26.7182 40.3108 26.7563Z" fill="white"/>
<path fill-rule="evenodd" clip-rule="evenodd" d="M42.8374 26.3936L42.8467 26.3962L42.9247 26.2899L42.2507 25.7925L42.2402 25.7847L42.2309 25.7952C42.1569 25.8949 42.1847 25.9435 42.3353 26.1009L41.3521 27.4185C41.1579 27.3214 41.0998 27.3109 41.0258 27.408L41.0178 27.4211L42.2164 28.3043L42.2243 28.3096L42.2322 28.3043C42.2692 28.2794 42.3128 28.2414 42.3445 28.198C42.4133 28.1062 42.478 27.95 42.4978 27.8713L42.5005 27.8634L42.4119 27.7965L42.404 27.8017C42.3208 27.8463 42.2388 27.9106 42.1358 28.0051L41.5926 27.6049L42.5811 26.2807C42.6577 26.3175 42.7621 26.3687 42.8374 26.3936Z" fill="white"/>
<path fill-rule="evenodd" clip-rule="evenodd" d="M44.266 27.3239L44.2752 27.3266L44.3466 27.2137L43.6158 26.7688L43.6039 26.761L43.596 26.7728C43.5312 26.8764 43.5696 26.9329 43.7387 27.0798L42.8798 28.4735C42.6697 28.3896 42.6023 28.3856 42.5375 28.4893L42.5322 28.4998L43.2617 28.9434L43.2736 28.9499L43.3449 28.8371L43.3383 28.8292C43.2881 28.7714 43.2009 28.6914 43.1375 28.6337L44.0004 27.2373C44.0783 27.2675 44.1867 27.3069 44.266 27.3239Z" fill="white"/>
<path fill-rule="evenodd" clip-rule="evenodd" d="M44.6796 29.482C44.5012 29.4007 44.3822 29.2589 44.3386 29.0752C44.2924 28.8862 44.3241 28.6644 44.4325 28.4348C44.6584 27.9571 45.0311 27.7681 45.4011 27.9413C45.4196 27.9492 45.4354 27.9584 45.4526 27.9689C45.779 28.1526 45.8583 28.545 45.6495 28.9846C45.4248 29.4571 45.0456 29.6526 44.6796 29.482ZM45.9628 29.1081C46.0963 28.8234 46.1188 28.5438 46.0276 28.3011C45.9391 28.0701 45.7567 27.885 45.503 27.7669C44.9704 27.5176 44.3903 27.7486 44.1234 28.3102C43.9899 28.5963 43.9635 28.8772 44.0494 29.1226C44.134 29.3522 44.3124 29.5373 44.5648 29.6541C44.5899 29.6672 44.6163 29.6764 44.6282 29.6803C44.7696 30.1068 44.9969 30.4192 45.2651 30.5727C45.2876 30.5845 45.3087 30.5963 45.3286 30.6042C45.5691 30.7158 45.7726 30.6698 45.8558 30.6239L45.8624 30.62L45.8637 30.511L45.8532 30.5084C45.8452 30.5071 45.836 30.5045 45.8254 30.5032C45.7659 30.4927 45.6761 30.473 45.5558 30.4165C45.3048 30.2997 45.0788 30.074 44.8846 29.7459C45.3299 29.8024 45.7514 29.557 45.9628 29.1081Z" fill="white"/>
<path fill-rule="evenodd" clip-rule="evenodd" d="M46.754 30.4755C46.8333 30.5214 46.9271 30.5569 47.0342 30.591C47.2654 30.6592 47.4808 30.6382 47.6605 30.5319C47.8376 30.4282 47.9711 30.2445 48.0424 30.003L48.3397 29.0188C48.5617 29.045 48.6238 29.0332 48.6556 28.9177L48.6608 28.9059L47.8825 28.6763L47.8693 28.6723L47.8283 28.7996L47.8376 28.8062C47.8997 28.8521 48.0147 28.9046 48.1072 28.9479L47.8191 29.9138C47.7596 30.1146 47.6711 30.255 47.5575 30.3338C47.4425 30.4138 47.2945 30.4296 47.1227 30.3784C46.9271 30.3206 46.8029 30.2261 46.7448 30.0883C46.6919 29.9611 46.6959 29.8023 46.7567 29.6015L47.0447 28.6356C47.1465 28.6474 47.272 28.6671 47.3487 28.6618L47.3579 28.6605L47.3949 28.5345L46.5571 28.2865L46.5439 28.2826L46.5399 28.2957C46.5069 28.4112 46.5518 28.4532 46.7527 28.5516L46.458 29.5372C46.3734 29.8219 46.384 30.0477 46.4884 30.2261C46.5479 30.3259 46.6351 30.4086 46.754 30.4755Z" fill="white"/>
<path fill-rule="evenodd" clip-rule="evenodd" d="M50.0199 29.2938C50.0265 29.408 50.041 29.4959 50.0701 29.5996L50.0727 29.6075L50.1824 29.6245L50.1864 29.6167C50.2273 29.5471 50.2921 29.4028 50.308 29.2951C50.3185 29.2348 50.3185 29.1875 50.3106 29.1534L50.3093 29.1429L48.861 28.9251L48.8464 28.9224L48.8451 28.9382C48.8266 29.0602 48.8768 29.0944 49.0817 29.1626L48.8346 30.7768C48.6165 30.7833 48.561 30.7991 48.5412 30.9238L48.5399 30.9369L49.9895 31.156L49.9961 31.1573L50.0014 31.1495C50.0238 31.1101 50.0423 31.0563 50.049 31.0051C50.0675 30.8896 50.0476 30.7295 50.0318 30.6521L50.0291 30.6429L49.9208 30.6285L49.9155 30.6337C49.8613 30.7164 49.8177 30.8083 49.7728 30.9303L49.1332 30.8332L49.2521 30.0589L49.7397 30.1337C49.8547 30.1495 49.9009 30.1035 49.9274 30.0668L49.93 30.0642L49.9446 29.9566L49.2812 29.8581L49.3843 29.198L50.0199 29.2938Z" fill="white"/>
<path fill-rule="evenodd" clip-rule="evenodd" d="M51.5014 30.364L51.4988 30.3666V30.5543H51.9758C52.1357 30.5543 52.1912 30.549 52.2414 30.4873L52.2441 30.4834V30.297H51.7644C51.6058 30.297 51.5503 30.3023 51.5014 30.364Z" fill="white"/>
<path fill-rule="evenodd" clip-rule="evenodd" d="M53.6874 31.1393L53.69 31.1524L54.5397 31.0422L54.5516 31.0395L54.5358 30.9083L54.5252 30.9057C54.4684 30.8952 54.3759 30.886 54.2464 30.8847L54.0746 29.5828L54.0733 29.5776L54.0667 29.575C54.0217 29.554 53.9649 29.5487 53.8962 29.5579C53.7548 29.5763 53.5896 29.6471 53.5354 29.676L53.5262 29.6813L53.5407 29.7876L53.55 29.7902C53.6081 29.7981 53.6861 29.8059 53.8037 29.8059L53.9504 30.9201C53.7297 30.9844 53.6715 31.0198 53.6874 31.1393Z" fill="white"/>
<path fill-rule="evenodd" clip-rule="evenodd" d="M55.2641 29.9385L55.3883 29.9634C55.6579 30.0146 55.8032 30.0789 55.8508 30.2941C55.8944 30.4844 55.7794 30.638 55.5588 30.6852C55.3249 30.7377 55.1544 30.6353 55.1055 30.4109C55.0553 30.1891 55.157 30.0474 55.2641 29.9385ZM54.9326 29.3534C54.9102 29.2576 54.926 29.1775 54.9762 29.1159C55.0212 29.0581 55.0965 29.0161 55.1916 28.9951C55.2815 28.9767 55.3621 28.9846 55.4282 29.0227C55.4348 29.0279 55.4414 29.0319 55.448 29.0358C55.5141 29.083 55.5643 29.1565 55.5854 29.255C55.6184 29.4033 55.5762 29.5384 55.4572 29.671L55.4216 29.6631C55.1652 29.6159 54.9802 29.566 54.9326 29.3534ZM54.8073 30.4989C54.8377 30.638 54.9064 30.7429 55.016 30.8138C55.0213 30.8178 55.0306 30.823 55.0385 30.8269C55.1786 30.9057 55.3662 30.9214 55.5856 30.8729C55.9754 30.7876 56.208 30.4923 56.1353 30.1734C56.0705 29.8794 55.8948 29.7758 55.6133 29.7049C55.7732 29.6078 55.9344 29.4385 55.875 29.1695C55.8221 28.9319 55.6094 28.7128 55.1693 28.8112C54.9804 28.8506 54.8324 28.9372 54.7399 29.0579C54.65 29.1721 54.6183 29.3112 54.6487 29.4516C54.7148 29.7469 54.9156 29.8466 55.1112 29.9017C54.8747 30.0395 54.7584 30.2666 54.8073 30.4989Z" fill="white"/>
<path fill-rule="evenodd" clip-rule="evenodd" d="M56.6776 30.5522L56.6815 30.5653L57.4982 30.3081L57.5114 30.3055L57.4704 30.1769H57.4612C57.403 30.1769 57.3092 30.1847 57.1823 30.2044L56.7806 28.9472L56.7727 28.9459C56.7251 28.9354 56.6683 28.9393 56.6009 28.959C56.4674 29.001 56.3168 29.1021 56.2653 29.1388L56.2613 29.1467L56.293 29.2477H56.3036C56.363 29.2464 56.4384 29.2412 56.556 29.2215L56.8969 30.291C56.6921 30.3921 56.6419 30.438 56.6776 30.5522Z" fill="white"/>
<path fill-rule="evenodd" clip-rule="evenodd" d="M58.0774 28.8901C58.195 28.8402 58.3047 28.8442 58.4012 28.8993H58.4025C58.491 28.9505 58.569 29.0463 58.6232 29.1762C58.68 29.3087 58.6972 29.4373 58.6708 29.5436C58.647 29.6473 58.5822 29.7248 58.4858 29.7654C58.3814 29.8061 58.2849 29.8061 58.1924 29.7654C58.1792 29.7589 58.1686 29.7536 58.158 29.7457C57.9347 29.6211 57.8145 29.293 57.796 29.2418C57.8145 29.1198 57.9189 28.9557 58.0774 28.8901ZM57.94 29.9255C57.948 29.9294 57.9559 29.9334 57.9638 29.9373C58.1382 30.0265 58.3365 30.0305 58.5386 29.9478C58.7183 29.873 58.8518 29.7286 58.9139 29.5423C58.9707 29.369 58.9602 29.1709 58.8875 28.999C58.8201 28.8376 58.7091 28.7103 58.5703 28.6446C58.4223 28.5738 58.2558 28.5725 58.0867 28.642C57.8488 28.7404 57.7656 28.9189 57.7352 29.0344C57.644 28.5593 57.8436 28.1171 58.281 27.8454L58.2928 27.8376L58.2149 27.7221L58.207 27.7286C57.5132 28.0213 57.2344 28.7089 57.5264 29.4058C57.6282 29.6499 57.7722 29.8284 57.94 29.9255Z" fill="white"/>
<path fill-rule="evenodd" clip-rule="evenodd" d="M60.3127 28.3967C60.4832 28.398 60.6206 28.2602 60.6219 28.0923C60.6246 27.923 60.4884 27.7852 60.318 27.7839C60.1475 27.7799 60.0088 27.9177 60.0074 28.087C60.0061 28.2563 60.1422 28.3954 60.3127 28.3967Z" fill="white"/>
<path fill-rule="evenodd" clip-rule="evenodd" d="M35.1743 10.4302H35.1663L35.1637 10.4368C35.1254 10.5063 35.054 10.7478 35.0249 10.9171C34.9338 11.4145 35.1135 11.8213 35.4914 12.0365C35.6077 12.0995 35.7425 12.1494 35.8931 12.1756C36.5142 12.2858 36.9807 11.9879 37.0824 11.4223C37.1551 11.0194 36.9516 10.7806 36.8591 10.6953L36.8538 10.6914L36.8472 10.6927C36.8208 10.6992 36.7613 10.736 36.7415 10.7596L36.7349 10.7675L36.7428 10.7845C36.797 10.8646 36.9146 11.0523 36.867 11.316C36.8313 11.5208 36.7177 11.6769 36.538 11.7701C36.3675 11.858 36.1442 11.8816 35.9103 11.841C35.642 11.7937 35.4438 11.6966 35.3223 11.5509C35.2047 11.4105 35.1663 11.232 35.202 11.026C35.2271 10.8935 35.272 10.7911 35.2985 10.7399C35.4716 10.7399 35.5998 10.711 35.646 10.6979L35.6566 10.6953L35.6764 10.5877L35.6685 10.5837C35.5971 10.5391 35.4597 10.4604 35.3289 10.4381C35.2866 10.4302 35.2179 10.425 35.1743 10.4302Z" fill="white"/>
<path fill-rule="evenodd" clip-rule="evenodd" d="M36.5421 9.69582L35.7612 9.13414L36.7258 9.12627L36.5421 9.69582ZM35.8208 8.84027C35.6807 8.8429 35.5789 8.84421 35.5182 9.03581L35.4693 9.18017L37.0682 10.3495C37.0603 10.4899 37.0669 10.5555 37.1329 10.5949C37.1462 10.5988 37.1607 10.6054 37.1752 10.6106L37.1884 10.6145L37.4078 9.93345L37.4118 9.91901L37.2849 9.88095L37.2796 9.88752C37.2281 9.96494 37.1766 10.0594 37.1448 10.129L36.7061 9.81534L36.9281 9.12374L37.4699 9.1198C37.4554 9.19067 37.4435 9.29171 37.4382 9.39276V9.40064L37.5637 9.44263L37.8082 8.68673L37.8135 8.67492L37.8003 8.66967C37.6906 8.63555 37.6496 8.68279 37.5624 8.82321L35.83 8.84027H35.8208Z" fill="white"/>
<path fill-rule="evenodd" clip-rule="evenodd" d="M36.4982 6.97385L36.3754 6.92005L36.0305 7.69957L36.0252 7.71138L36.0344 7.71532C36.1467 7.7665 36.1983 7.72188 36.3238 7.53684L37.8289 8.19695C37.7734 8.4148 37.7747 8.47779 37.8884 8.53028L37.9016 8.53422L38.2465 7.75863L38.2518 7.74419L38.1276 7.69039L38.1223 7.69957C38.0681 7.75732 38.0034 7.84918 37.9558 7.92267L36.4454 7.25732C36.4665 7.17464 36.4903 7.06178 36.4982 6.98304V6.97385Z" fill="white"/>
<path fill-rule="evenodd" clip-rule="evenodd" d="M37.2351 5.73833C37.3408 5.77113 37.4849 5.79344 37.5536 5.79344H37.5615L37.6144 5.70027L37.6077 5.69108C37.4611 5.52835 37.3276 5.4378 37.2087 5.41418L37.2034 5.41287L37.1994 5.41943C37.1585 5.46405 37.0422 5.59922 36.9087 5.83938C36.6973 6.22258 36.7396 6.5336 37.025 6.69633C37.0276 6.69764 37.0316 6.69896 37.0342 6.70158C37.2404 6.81444 37.4465 6.80394 37.6461 6.66746C37.7386 6.60447 37.7888 6.56247 37.8522 6.50735C37.8879 6.47717 37.9275 6.44174 37.9844 6.39581C38.1337 6.27507 38.2579 6.21995 38.4403 6.31707C38.4416 6.31838 38.4442 6.31969 38.4455 6.321C38.6239 6.42205 38.6596 6.61628 38.5407 6.8315C38.4627 6.97323 38.3557 7.06772 38.279 7.10709C38.1852 7.07035 38.0385 7.02573 37.9209 7.01785H37.913L37.8588 7.11365L37.8628 7.12153C37.9236 7.20683 38.028 7.30788 38.139 7.37218C38.1786 7.39581 38.2196 7.41155 38.2592 7.42336L38.2658 7.42468L38.2711 7.42205C38.3319 7.38662 38.542 7.25145 38.7111 6.94567C38.9305 6.55066 38.8671 6.21733 38.5367 6.03229C38.5314 6.02966 38.5288 6.02704 38.5261 6.0231C38.2764 5.88793 38.0465 5.92993 37.7795 6.15959C37.7544 6.1819 37.732 6.20158 37.7121 6.21733C37.6434 6.27901 37.5985 6.31444 37.5271 6.36956C37.3818 6.47717 37.2629 6.49686 37.1452 6.43124C37.1439 6.42993 37.1413 6.42861 37.14 6.4273C36.9787 6.33675 36.9523 6.17271 37.0673 5.96405C37.1307 5.84987 37.1981 5.77507 37.2351 5.73833Z" fill="white"/>
<path fill-rule="evenodd" clip-rule="evenodd" d="M38.2898 3.84558L38.2818 3.84427L38.2766 3.84821C38.2343 3.88758 38.1008 4.00831 37.9409 4.23272C37.6832 4.5923 37.6925 4.9112 37.9647 5.1028C38.1537 5.23928 38.3625 5.25109 38.5765 5.13954C38.6756 5.08705 38.7298 5.0503 38.7998 5.00437C38.8382 4.97813 38.8831 4.94794 38.9465 4.90988C39.1051 4.8049 39.2372 4.76421 39.4064 4.88364C39.487 4.94138 39.5332 5.02143 39.5425 5.10936C39.5517 5.20254 39.5174 5.3049 39.446 5.40463C39.3522 5.53587 39.2346 5.61723 39.154 5.64873C39.0655 5.59886 38.9241 5.54112 38.8091 5.5175L38.8012 5.51487L38.7351 5.60673L38.7391 5.61592C38.7985 5.72484 38.9135 5.86001 39.0403 5.93088C39.0602 5.944 39.08 5.95188 39.0985 5.95975L39.1038 5.96106L39.1091 5.95975C39.1738 5.93219 39.3998 5.82196 39.602 5.53849C39.8689 5.16579 39.8411 4.82458 39.5253 4.60149C39.2941 4.43744 39.0602 4.45188 38.7668 4.65004C38.7404 4.66841 38.7166 4.68679 38.6955 4.69991C38.6188 4.7524 38.5726 4.7839 38.492 4.82983C38.3373 4.92038 38.2171 4.92563 38.1061 4.8482C37.9515 4.73928 37.9436 4.56999 38.0836 4.37576C38.1576 4.26946 38.2343 4.20254 38.2766 4.16973C38.377 4.21566 38.521 4.25503 38.5871 4.26159L38.5924 4.2629L38.6585 4.17366L38.6505 4.16579C38.5263 3.98731 38.4047 3.8797 38.2898 3.84558Z" fill="white"/>
<path fill-rule="evenodd" clip-rule="evenodd" d="M39.5941 2.59077C39.6919 2.64589 39.7738 2.68132 39.8756 2.71544L39.8848 2.71807L39.9562 2.63539L39.9522 2.62752C39.9179 2.55665 39.832 2.42279 39.7514 2.3493C39.7051 2.30862 39.6655 2.28368 39.6311 2.26925L39.6218 2.26531L38.6427 3.34799L38.6321 3.35717L38.644 3.36636C38.7391 3.45035 38.7946 3.42804 38.9625 3.29418L40.1874 4.38736C40.0725 4.56977 40.0553 4.62883 40.1491 4.7115L40.1597 4.72069L41.1468 3.63014L41.1415 3.62227C41.1217 3.5829 41.086 3.53959 41.0464 3.50284C40.9605 3.42804 40.8151 3.35324 40.7398 3.32699L40.7305 3.32437L40.6579 3.40311L40.6618 3.41098C40.7015 3.50153 40.7543 3.58946 40.8323 3.69051L40.3962 4.16951L39.8121 3.6472L40.1425 3.28106C40.2205 3.19576 40.2072 3.13145 40.1901 3.08946L40.1081 3.01465L39.6602 3.5094L39.1607 3.06321L39.5901 2.58946L39.5941 2.59077Z" fill="white"/>
<path fill-rule="evenodd" clip-rule="evenodd" d="M41.2935 1.03617L41.5644 0.834068C41.9634 0.533544 42.3519 0.592599 42.6598 0.99811C42.8303 1.22252 42.9109 1.41937 42.9056 1.60572C42.899 1.80782 42.788 1.98892 42.566 2.15559L42.3572 2.31176C42.3123 2.34457 42.2859 2.34063 42.2515 2.2947L41.2935 1.03617ZM41.9492 2.84066L41.9571 2.84985L42.7249 2.27504C42.9852 2.0795 43.1385 1.8341 43.1689 1.56638C43.1966 1.30916 43.1121 1.04013 42.9205 0.790791C42.5531 0.305227 42.0192 0.251421 41.4907 0.646434L40.7189 1.22649L40.7295 1.23567C40.8048 1.33672 40.8643 1.32491 41.0572 1.2278L42.0483 2.53095C41.9016 2.68712 41.8712 2.73961 41.9492 2.84066Z" fill="white"/>
<path fill-rule="evenodd" clip-rule="evenodd" d="M43.7277 1.5386L43.7357 1.55041L45.0095 0.829934L45.0175 0.825997L45.0161 0.816811C45.0095 0.773504 44.9897 0.718386 44.9633 0.672454C44.9065 0.574029 44.7915 0.458544 44.7294 0.409987L44.7215 0.402113L44.6263 0.457231L44.6276 0.466418C44.6356 0.563531 44.658 0.661956 44.7003 0.784003L44.1374 1.1029L43.7462 0.421798L44.1757 0.179016C44.2735 0.123898 44.2841 0.0609061 44.2814 0.0162867H44.0489L43.6458 0.245945L43.5137 0.0162867H43.1635L43.8652 1.24332C43.7 1.38112 43.6656 1.42967 43.7277 1.5386Z" fill="white"/>
<path fill-rule="evenodd" clip-rule="evenodd" d="M46.1588 0.039247C46.1178 0.120612 46.0346 0.191478 45.9196 0.23741C45.7716 0.301714 45.6302 0.308276 45.543 0.292528C45.4968 0.209851 45.4148 0.0969898 45.3316 0.015625H45.2629L45.2087 0.039247L45.2074 0.0484334C45.1981 0.191478 45.2364 0.401452 45.3316 0.53006L45.3355 0.533997L45.3408 0.53531C45.4095 0.545808 45.6593 0.568118 45.9831 0.43426C46.1852 0.348958 46.3306 0.230848 46.4059 0.0943651C46.4204 0.0681184 46.4284 0.043184 46.4376 0.015625H46.1654C46.1614 0.0221867 46.1628 0.0326853 46.1588 0.039247Z" fill="white"/>
<path fill-rule="evenodd" clip-rule="evenodd" d="M63.8721 23.3676L63.8615 23.3598L63.3356 23.9477L63.4347 24.0356L63.4439 24.0317C63.51 23.9949 63.5985 23.9241 63.6725 23.865L63.9712 24.1301V23.8257L63.8271 23.6957C63.9461 23.5068 63.9619 23.449 63.8721 23.3676Z" fill="white"/>
<path fill-rule="evenodd" clip-rule="evenodd" d="M63.9532 26.3038L63.9638 26.313L63.9717 26.3038V26.019C63.8805 26.1686 63.8713 26.2303 63.9532 26.3038Z" fill="white"/>
<path fill-rule="evenodd" clip-rule="evenodd" d="M63.9715 24.6801L62.7862 24.5383H62.7796L62.7333 24.5869C62.6778 24.6499 62.6686 24.7168 62.7029 24.7903C62.7333 24.8559 62.7994 24.9189 62.8575 24.9701L63.9715 25.953V25.6459L63.0822 24.8638L63.9715 24.974V24.6801Z" fill="white"/>
<path fill-rule="evenodd" clip-rule="evenodd" d="M62.6907 27.1407C62.6035 27.0725 62.4753 27.0003 62.4119 26.9767L62.404 26.9754L62.322 27.0462L62.3247 27.0554C62.4053 27.2575 62.4978 27.3901 62.6009 27.4504L62.6075 27.4557L62.6114 27.4504C62.663 27.4242 62.8229 27.3376 63.033 27.1591C63.3699 26.8704 63.436 26.5607 63.2167 26.3087C63.0647 26.1289 62.8691 26.0699 62.6339 26.1276C62.5242 26.1539 62.4634 26.1762 62.3855 26.205C62.3379 26.2208 62.289 26.2392 62.219 26.2641C62.0393 26.3258 61.8992 26.3337 61.767 26.1788C61.6309 26.02 61.664 25.8245 61.8529 25.663C61.9758 25.5567 62.1093 25.5069 62.1952 25.4964C62.2705 25.5646 62.3894 25.6552 62.4978 25.705L62.5057 25.709L62.5929 25.6355L62.5903 25.6276C62.5533 25.4885 62.4542 25.2982 62.3247 25.205L62.3194 25.2011L62.3141 25.2024C62.2441 25.2142 61.9996 25.268 61.7314 25.4964C61.5662 25.6368 61.4644 25.7943 61.4354 25.9478C61.401 26.1145 61.4525 26.2746 61.582 26.4255C61.7684 26.6381 61.9996 26.6775 62.33 26.5567C62.3617 26.5449 62.3881 26.5344 62.4132 26.5253C62.4978 26.4924 62.5533 26.4728 62.6405 26.4478C62.8136 26.3966 62.9312 26.4203 63.0198 26.5213C63.144 26.6657 63.1096 26.8297 62.9286 26.9872C62.8281 27.0699 62.7396 27.1171 62.6907 27.1407Z" fill="white"/>
<path fill-rule="evenodd" clip-rule="evenodd" d="M63.9708 27.9352C60.7399 30.7449 56.51 32.4509 51.8784 32.4509C41.7324 32.4509 33.5078 24.2843 33.5078 14.2082C33.5078 8.47458 36.1732 3.3591 40.3383 0.0165785H38.0694C34.3298 3.60581 32.0014 8.63468 32.0014 14.2082C32.0014 25.1097 40.8999 33.9483 51.8784 33.9483C56.4294 33.9483 60.621 32.4247 63.9708 29.8696V27.9352Z" fill="white"/>
</svg>
